999
dxfrw 0.6.3
  0
SECTION
  2
HEADER
  9
$ACADVER
  1
AC1021
  9
$DWGCODEPAGE
  3
ANSI_1252
  9
$INSBASE
 10
0
 20
0
 30
0
  9
$EXTMIN
 10
1.3905873854
 20
14.22718280809399
 30
0
  9
$EXTMAX
 10
381.8500329659478
 20
297.2497642427
 30
0
  9
$LIMMIN
 10
0
 20
0
  9
$LIMMAX
 10
600
 20
300
  9
$ORTHOMODE
 70
    0
  9
$REGENMODE
 70
    1
  9
$FILLMODE
 70
    1
  9
$QTEXTMODE
 70
    0
  9
$MIRRTEXT
 70
    1
  9
$LTSCALE
 40
1
  9
$ATTMODE
 70
    1
  9
$TEXTSIZE
 40
3.5
  9
$TRACEWID
 40
1
  9
$TEXTSTYLE
  7
Standard
  9
$CLAYER
  8
0
  9
$CELTYPE
  6
ByLayer
  9
$CECOLOR
 62
  256
  9
$CELTSCALE
 40
1
  9
$DISPSILH
 70
    0
  9
$DIMSCALE
 40
1
  9
$DIMASZ
 40
3.302
  9
$DIMEXO
 40
1
  9
$DIMDLI
 40
3.75
  9
$DIMRND
 40
0
  9
$DIMDLE
 40
0
  9
$DIMEXE
 40
1
  9
$DIMTP
 40
0
  9
$DIMTM
 40
0
  9
$DIMTXT
 40
3.5
  9
$DIMCEN
 40
2.5
  9
$DIMTSZ
 40
0
  9
$DIMTOL
 70
    0
  9
$DIMLIM
 70
    0
  9
$DIMTIH
 70
    1
  9
$DIMTOH
 70
    1
  9
$DIMSE1
 70
    0
  9
$DIMSE2
 70
    0
  9
$DIMTAD
 70
    1
  9
$DIMZIN
 70
    0
  9
$DIMBLK
  1

  9
$DIMASO
 70
    1
  9
$DIMSHO
 70
    1
  9
$DIMPOST
  1

  9
$DIMAPOST
  1

  9
$DIMALT
 70
    0
  9
$DIMALTD
 70
    3
  9
$DIMALTF
 40
0.0393700787
  9
$DIMLFAC
 40
2
  9
$DIMTOFL
 70
    1
  9
$DIMTVP
 40
0
  9
$DIMTIX
 70
    0
  9
$DIMSOXD
 70
    0
  9
$DIMSAH
 70
    0
  9
$DIMBLK1
  1

  9
$DIMBLK2
  1

  9
$DIMSTYLE
  2
ISO-25
  9
$DIMCLRD
 70
    0
  9
$DIMCLRE
 70
    0
  9
$DIMCLRT
 70
    0
  9
$DIMTFAC
 40
1
  9
$DIMGAP
 40
1.524
  9
$DIMJUST
 70
    0
  9
$DIMSD1
 70
    0
  9
$DIMSD2
 70
    0
  9
$DIMTOLJ
 70
    0
  9
$DIMTZIN
 70
    0
  9
$DIMALTZ
 70
    0
  9
$DIMALTTZ
 70
    0
  9
$DIMUPT
 70
    0
  9
$DIMDEC
 70
    2
  9
$DIMTDEC
 70
    2
  9
$DIMALTU
 70
    2
  9
$DIMALTTD
 70
    3
  9
$DIMTXSTY
  7
Standard
  9
$DIMAUNIT
 70
    0
  9
$DIMADEC
 70
    0
  9
$DIMALTRND
 40
0
  9
$DIMAZIN
 70
    0
  9
$DIMDSEP
 70
   44
  9
$DIMATFIT
 70
    3
  9
$DIMFRAC
 70
    0
  9
$DIMLDRBLK
  1

  9
$DIMLUNIT
 70
    2
  9
$DIMLWD
 70
   -2
  9
$DIMLWE
 70
   -2
  9
$DIMTMOVE
 70
    0
  9
$DIMFXL
 40
1
  9
$DIMFXLON
 70
    0
  9
$DIMJOGANG
 40
0.7854
  9
$DIMTFILL
 70
    0
  9
$DIMTFILLCLR
 70
    0
  9
$DIMARCSYM
 70
    0
  9
$DIMLTYPE
  6

  9
$DIMLTEX1
  6

  9
$DIMLTEX2
  6

  9
$LUNITS
 70
    2
  9
$LUPREC
 70
    2
  9
$SKETCHINC
 40
1
  9
$FILLETRAD
 40
10
  9
$AUNITS
 70
    0
  9
$AUPREC
 70
    2
  9
$MENU
  1
.
  9
$ELEVATION
 40
0
  9
$PELEVATION
 40
0
  9
$THICKNESS
 40
0
  9
$LIMCHECK
 70
    0
  9
$CHAMFERA
 40
10
  9
$CHAMFERB
 40
10
  9
$CHAMFERC
 40
20
  9
$CHAMFERD
 40
0
  9
$SKPOLY
 70
    0
  9
$USRTIMER
 70
    1
  9
$ANGBASE
 50
0
  9
$ANGDIR
 70
    0
  9
$PDMODE
 70
    0
  9
$PDSIZE
 40
-1
  9
$PLINEWID
 40
0
  9
$SPLFRAME
 70
    0
  9
$SPLINETYPE
 70
    6
  9
$SPLINESEGS
 70
    8
  9
$HANDSEED
  5
20000
  9
$SURFTAB1
 70
    6
  9
$SURFTAB2
 70
    6
  9
$SURFTYPE
 70
    6
  9
$SURFU
 70
    6
  9
$SURFV
 70
    6
  9
$UCSBASE
  2

  9
$UCSNAME
  2

  9
$UCSORG
 10
0
 20
0
 30
0
  9
$UCSXDIR
 10
1
 20
0
 30
0
  9
$UCSYDIR
 10
0
 20
1
 30
0
  9
$UCSORTHOREF
  2

  9
$UCSORTHOVIEW
 70
    0
  9
$UCSORGTOP
 10
0
 20
0
 30
0
  9
$UCSORGBOTTOM
 10
0
 20
0
 30
0
  9
$UCSORGLEFT
 10
0
 20
0
 30
0
  9
$UCSORGRIGHT
 10
0
 20
0
 30
0
  9
$UCSORGFRONT
 10
0
 20
0
 30
0
  9
$UCSORGBACK
 10
0
 20
0
 30
0
  9
$PUCSBASE
  2

  9
$PUCSNAME
  2

  9
$PUCSORG
 10
0
 20
0
 30
0
  9
$PUCSXDIR
 10
1
 20
0
 30
0
  9
$PUCSYDIR
 10
0
 20
1
 30
0
  9
$PUCSORTHOREF
  2

  9
$PUCSORTHOVIEW
 70
    0
  9
$PUCSORGTOP
 10
0
 20
0
 30
0
  9
$PUCSORGBOTTOM
 10
0
 20
0
 30
0
  9
$PUCSORGLEFT
 10
0
 20
0
 30
0
  9
$PUCSORGRIGHT
 10
0
 20
0
 30
0
  9
$PUCSORGFRONT
 10
0
 20
0
 30
0
  9
$PUCSORGBACK
 10
0
 20
0
 30
0
  9
$USERI1
 70
    0
  9
$USERI2
 70
    0
  9
$USERI3
 70
    0
  9
$USERI4
 70
    0
  9
$USERI5
 70
    0
  9
$USERR1
 40
0
  9
$USERR2
 40
0
  9
$USERR3
 40
0
  9
$USERR4
 40
0
  9
$USERR5
 40
0
  9
$WORLDVIEW
 70
    1
  9
$SHADEDGE
 70
    3
  9
$SHADEDIF
 70
   70
  9
$TILEMODE
 70
    1
  9
$MAXACTVP
 70
   64
  9
$PINSBASE
 10
17.9747454990289
 20
-9.040869829600297
 30
0
  9
$PLIMCHECK
 70
    0
  9
$PEXTMIN
 10
1e+020
 20
1e+020
 30
1e+020
  9
$PEXTMAX
 10
-1e+020
 20
-1e+020
 30
-1e+020
  9
$GRIDMODE
 70
    1
  9
$SNAPSTYLE
 70
    0
  9
$PLIMMIN
 10
0
 20
0
  9
$PLIMMAX
 10
420
 20
297
  9
$UNITMODE
 70
    0
  9
$VISRETAIN
 70
    1
  9
$PLINEGEN
 70
    0
  9
$PSLTSCALE
 70
    1
  9
$TREEDEPTH
 70
 3020
  9
$CMLSTYLE
  2
Standard
  9
$CMLJUST
 70
    0
  9
$CMLSCALE
 40
20
  9
$PROXYGRAPHICS
 70
    1
  9
$MEASUREMENT
 70
    1
  9
$CELWEIGHT
370
   -1
  9
$ENDCAPS
280
    0
  9
$JOINSTYLE
280
    0
  9
$LWDISPLAY
290
    1
  9
$INSUNITS
 70
    4
  9
$HYPERLINKBASE
  1

  9
$STYLESHEET
  1

  9
$XEDIT
290
    1
  9
$CEPSNTYPE
380
    0
  9
$PSTYLEMODE
290
    1
  9
$EXTNAMES
290
    1
  9
$PSVPSCALE
 40
1
  9
$OLESTARTUP
290
    0
  9
$SORTENTS
280
  127
  9
$INDEXCTL
280
    0
  9
$HIDETEXT
280
    1
  9
$XCLIPFRAME
290
    0
  9
$HALOGAP
280
    0
  9
$OBSCOLOR
 70
  257
  9
$OBSLTYPE
280
    0
  9
$INTERSECTIONDISPLAY
280
    0
  9
$INTERSECTIONCOLOR
 70
  257
  9
$DIMASSOC
280
    1
  9
$PROJECTNAME
  1

  9
$CAMERADISPLAY
290
    0
  9
$LENSLENGTH
 40
50
  9
$CAMERAHEIGHT
 40
0
  9
$STEPSPERSEC
 40
2
  9
$STEPSIZE
 40
50
  9
$3DDWFPREC
 40
2
  9
$PSOLWIDTH
 40
5
  9
$PSOLHEIGHT
 40
80
  9
$LOFTANG1
 40
1.570796326794897
  9
$LOFTANG2
 40
1.570796326794897
  9
$LOFTMAG1
 40
0
  9
$LOFTMAG2
 40
0
  9
$LOFTPARAM
 70
    7
  9
$LOFTNORMALS
280
    1
  9
$LATITUDE
 40
1
  9
$LONGITUDE
 40
1
  9
$NORTHDIRECTION
 40
0
  9
$TIMEZONE
 70
-8000
  9
$LIGHTGLYPHDISPLAY
280
    1
  9
$TILEMODELIGHTSYNCH
280
    1
  9
$SOLIDHIST
280
    1
  9
$SHOWHIST
280
    1
  9
$DWFFRAME
280
    2
  9
$DGNFRAME
280
    0
  9
$REALWORLDSCALE
290
    1
  9
$INTERFERECOLOR
 62
    1
  9
$CSHADOW
280
    0
  9
$SHADOWPLANELOCATION
 40
0
  0
ENDSEC
  0
SECTION
  2
CLASSES
  0
ENDSEC
  0
SECTION
  2
TABLES
  0
TABLE
  2
VPORT
  5
8
330
0
100
AcDbSymbolTable
 70
    1
  0
VPORT
  5
31
330
2
100
AcDbSymbolTableRecord
100
AcDbViewportTableRecord
  2
*ACTIVE
 70
    0
 10
0
 20
0
 11
1
 21
1
 12
-137.1723973230706
 22
-53.40299437768398
 13
0
 23
0
 14
10
 24
10
 15
10
 25
10
 16
0
 26
0
 36
1
 17
0
 27
0
 37
0
 40
36.30007460966755
 41
2.038461538461538
 42
50
 43
0
 44
0
 50
0
 51
0
 71
    0
 72
  100
 73
    1
 74
    3
 75
    0
 76
    1
 77
    0
 78
    0
281
    0
 65
    1
110
0
120
0
130
0
111
1
121
0
131
0
112
0
122
1
132
0
 79
    0
146
0
348
10020
 60
    7
 61
    5
292
1
282
    1
141
0
142
0
 63
  250
421
3358443
  0
ENDTAB
  0
TABLE
  2
LTYPE
  5
5
330
0
100
AcDbSymbolTable
 70
    4
  0
LTYPE
  5
14
330
5
100
AcDbSymbolTableRecord
100
AcDbLinetypeTableRecord
  2
ByBlock
 70
    0
  3

 72
   65
 73
    0
 40
0
  0
LTYPE
  5
15
330
5
100
AcDbSymbolTableRecord
100
AcDbLinetypeTableRecord
  2
ByLayer
 70
    0
  3

 72
   65
 73
    0
 40
0
  0
LTYPE
  5
16
330
5
100
AcDbSymbolTableRecord
100
AcDbLinetypeTableRecord
  2
Continuous
 70
    0
  3
Solid line
 72
   65
 73
    0
 40
0
  0
LTYPE
  5
32
330
5
100
AcDbSymbolTableRecord
100
AcDbLinetypeTableRecord
  2
DOT
 70
    0
  3
Dot . . . . . . . . . . . . . . . . . . . . . .
 72
   65
 73
    2
 40
6.35
 49
0
 74
    0
 49
-6.35
 74
    0
  0
LTYPE
  5
33
330
5
100
AcDbSymbolTableRecord
100
AcDbLinetypeTableRecord
  2
DOTTINY
 70
    0
  3
Dot (.15x) .....................................
 72
   65
 73
    2
 40
0.9525
 49
0
 74
    0
 49
-0.9525
 74
    0
  0
LTYPE
  5
34
330
5
100
AcDbSymbolTableRecord
100
AcDbLinetypeTableRecord
  2
DOT2
 70
    0
  3
Dot (.5x) .....................................
 72
   65
 73
    2
 40
3.175
 49
0
 74
    0
 49
-3.175
 74
    0
  0
LTYPE
  5
35
330
5
100
AcDbSymbolTableRecord
100
AcDbLinetypeTableRecord
  2
DOTX2
 70
    0
  3
Dot (2x) .  .  .  .  .  .  .  .  .  .  .  .  .
 72
   65
 73
    2
 40
12.7
 49
0
 74
    0
 49
-12.7
 74
    0
  0
LTYPE
  5
36
330
5
100
AcDbSymbolTableRecord
100
AcDbLinetypeTableRecord
  2
DASHED
 70
    0
  3
Dashed _ _ _ _ _ _ _ _ _ _ _ _ _ _ _ _ _
 72
   65
 73
    2
 40
19.05
 49
12.7
 74
    0
 49
-6.35
 74
    0
  0
LTYPE
  5
37
330
5
100
AcDbSymbolTableRecord
100
AcDbLinetypeTableRecord
  2
DASHEDTINY
 70
    0
  3
Dashed (.15x) _ _ _ _ _ _ _ _ _ _ _ _ _ _ _ _ _
 72
   65
 73
    2
 40
2.8575
 49
1.905
 74
    0
 49
-0.9525
 74
    0
  0
LTYPE
  5
38
330
5
100
AcDbSymbolTableRecord
100
AcDbLinetypeTableRecord
  2
DASHED2
 70
    0
  3
Dashed (.5x) _ _ _ _ _ _ _ _ _ _ _ _ _ _ _ _ _
 72
   65
 73
    2
 40
9.524999999999999
 49
6.35
 74
    0
 49
-3.175
 74
    0
  0
LTYPE
  5
39
330
5
100
AcDbSymbolTableRecord
100
AcDbLinetypeTableRecord
  2
DASHEDX2
 70
    0
  3
Dashed (2x) ____  ____  ____  ____  ____  ___
 72
   65
 73
    2
 40
38.09999999999999
 49
25.4
 74
    0
 49
-12.7
 74
    0
  0
LTYPE
  5
3A
330
5
100
AcDbSymbolTableRecord
100
AcDbLinetypeTableRecord
  2
DASHDOT
 70
    0
  3
Dash dot __ . __ . __ . __ . __ . __ . __ . __
 72
   65
 73
    4
 40
25.4
 49
12.7
 74
    0
 49
-6.35
 74
    0
 49
0
 74
    0
 49
-6.35
 74
    0
  0
LTYPE
  5
3B
330
5
100
AcDbSymbolTableRecord
100
AcDbLinetypeTableRecord
  2
DASHDOTTINY
 70
    0
  3
Dash dot (.15x) _._._._._._._._._._._._._._._.
 72
   65
 73
    4
 40
3.81
 49
1.905
 74
    0
 49
-0.9525
 74
    0
 49
0
 74
    0
 49
-0.9525
 74
    0
  0
LTYPE
  5
3C
330
5
100
AcDbSymbolTableRecord
100
AcDbLinetypeTableRecord
  2
DASHDOT2
 70
    0
  3
Dash dot (.5x) _._._._._._._._._._._._._._._.
 72
   65
 73
    4
 40
12.7
 49
6.35
 74
    0
 49
-3.175
 74
    0
 49
0
 74
    0
 49
-3.175
 74
    0
  0
LTYPE
  5
3D
330
5
100
AcDbSymbolTableRecord
100
AcDbLinetypeTableRecord
  2
DASHDOTX2
 70
    0
  3
Dash dot (2x) ____  .  ____  .  ____  .  ___
 72
   65
 73
    4
 40
50.8
 49
25.4
 74
    0
 49
-12.7
 74
    0
 49
0
 74
    0
 49
-12.7
 74
    0
  0
LTYPE
  5
3E
330
5
100
AcDbSymbolTableRecord
100
AcDbLinetypeTableRecord
  2
DIVIDE
 70
    0
  3
Divide ____ . . ____ . . ____ . . ____ . . ____
 72
   65
 73
    6
 40
31.75
 49
12.7
 74
    0
 49
-6.35
 74
    0
 49
0
 74
    0
 49
-6.35
 74
    0
 49
0
 74
    0
 49
-6.35
 74
    0
  0
LTYPE
  5
3F
330
5
100
AcDbSymbolTableRecord
100
AcDbLinetypeTableRecord
  2
DIVIDETINY
 70
    0
  3
Divide (.15x) __..__..__..__..__..__..__..__.._
 72
   65
 73
    6
 40
4.7625
 49
1.905
 74
    0
 49
-0.9525
 74
    0
 49
0
 74
    0
 49
-0.9525
 74
    0
 49
0
 74
    0
 49
-0.9525
 74
    0
  0
LTYPE
  5
40
330
5
100
AcDbSymbolTableRecord
100
AcDbLinetypeTableRecord
  2
DIVIDE2
 70
    0
  3
Divide (.5x) __..__..__..__..__..__..__..__.._
 72
   65
 73
    6
 40
15.875
 49
6.35
 74
    0
 49
-3.175
 74
    0
 49
0
 74
    0
 49
-3.175
 74
    0
 49
0
 74
    0
 49
-3.175
 74
    0
  0
LTYPE
  5
41
330
5
100
AcDbSymbolTableRecord
100
AcDbLinetypeTableRecord
  2
DIVIDEX2
 70
    0
  3
Divide (2x) ________  .  .  ________  .  .  _
 72
   65
 73
    6
 40
63.5
 49
25.4
 74
    0
 49
-12.7
 74
    0
 49
0
 74
    0
 49
-12.7
 74
    0
 49
0
 74
    0
 49
-12.7
 74
    0
  0
LTYPE
  5
42
330
5
100
AcDbSymbolTableRecord
100
AcDbLinetypeTableRecord
  2
BORDER
 70
    0
  3
Border __ __ . __ __ . __ __ . __ __ . __ __ .
 72
   65
 73
    6
 40
44.45
 49
12.7
 74
    0
 49
-6.35
 74
    0
 49
12.7
 74
    0
 49
-6.35
 74
    0
 49
0
 74
    0
 49
-6.35
 74
    0
  0
LTYPE
  5
43
330
5
100
AcDbSymbolTableRecord
100
AcDbLinetypeTableRecord
  2
BORDERTINY
 70
    0
  3
Border (.15x) __.__.__.__.__.__.__.__.__.__.__.
 72
   65
 73
    6
 40
6.6675
 49
1.905
 74
    0
 49
-0.9525
 74
    0
 49
1.905
 74
    0
 49
-0.9525
 74
    0
 49
0
 74
    0
 49
-0.9525
 74
    0
  0
LTYPE
  5
44
330
5
100
AcDbSymbolTableRecord
100
AcDbLinetypeTableRecord
  2
BORDER2
 70
    0
  3
Border (.5x) __.__.__.__.__.__.__.__.__.__.__.
 72
   65
 73
    6
 40
22.225
 49
6.35
 74
    0
 49
-3.175
 74
    0
 49
6.35
 74
    0
 49
-3.175
 74
    0
 49
0
 74
    0
 49
-3.175
 74
    0
  0
LTYPE
  5
45
330
5
100
AcDbSymbolTableRecord
100
AcDbLinetypeTableRecord
  2
BORDERX2
 70
    0
  3
Border (2x) ____  ____  .  ____  ____  .  ___
 72
   65
 73
    6
 40
88.89999999999999
 49
25.4
 74
    0
 49
-12.7
 74
    0
 49
25.4
 74
    0
 49
-12.7
 74
    0
 49
0
 74
    0
 49
-12.7
 74
    0
  0
LTYPE
  5
46
330
5
100
AcDbSymbolTableRecord
100
AcDbLinetypeTableRecord
  2
CENTER
 70
    0
  3
Center ____ _ ____ _ ____ _ ____ _ ____ _ ____
 72
   65
 73
    4
 40
50.8
 49
31.75
 74
    0
 49
-6.35
 74
    0
 49
6.35
 74
    0
 49
-6.35
 74
    0
  0
LTYPE
  5
47
330
5
100
AcDbSymbolTableRecord
100
AcDbLinetypeTableRecord
  2
CENTERTINY
 70
    0
  3
Center (.15x) ___ _ ___ _ ___ _ ___ _ ___ _ ___
 72
   65
 73
    4
 40
7.62
 49
4.7625
 74
    0
 49
-0.9525
 74
    0
 49
0.9525
 74
    0
 49
-0.9525
 74
    0
  0
LTYPE
  5
48
330
5
100
AcDbSymbolTableRecord
100
AcDbLinetypeTableRecord
  2
CENTER2
 70
    0
  3
Center (.5x) ___ _ ___ _ ___ _ ___ _ ___ _ ___
 72
   65
 73
    4
 40
28.575
 49
19.05
 74
    0
 49
-3.175
 74
    0
 49
3.175
 74
    0
 49
-3.175
 74
    0
  0
LTYPE
  5
49
330
5
100
AcDbSymbolTableRecord
100
AcDbLinetypeTableRecord
  2
CENTERX2
 70
    0
  3
Center (2x) ________  __  ________  __  _____
 72
   65
 73
    4
 40
101.6
 49
63.5
 74
    0
 49
-12.7
 74
    0
 49
12.7
 74
    0
 49
-12.7
 74
    0
  0
ENDTAB
  0
TABLE
  2
LAYER
  5
2
330
0
100
AcDbSymbolTable
 70
    1
  0
LAYER
  5
10
330
2
100
AcDbSymbolTableRecord
100
AcDbLayerTableRecord
  2
0
 70
    0
 62
    7
  6
CONTINUOUS
370
   -3
390
F
  0
ENDTAB
  0
TABLE
  2
STYLE
  5
3
330
0
100
AcDbSymbolTable
 70
    3
  0
STYLE
  5
4A
330
2
100
AcDbSymbolTableRecord
100
AcDbTextStyleTableRecord
  2
Standard
 70
    0
 40
0
 41
1
 50
0
 71
    0
 42
1
  3
txt
  4

  0
ENDTAB
  0
TABLE
  2
VIEW
  5
6
330
0
100
AcDbSymbolTable
 70
    0
  0
ENDTAB
  0
TABLE
  2
UCS
  5
7
330
0
100
AcDbSymbolTable
 70
    0
  0
ENDTAB
  0
TABLE
  2
APPID
  5
9
330
0
100
AcDbSymbolTable
 70
    1
  0
APPID
  5
12
330
9
100
AcDbSymbolTableRecord
100
AcDbRegAppTableRecord
  2
ACAD
 70
    0
  0
APPID
  5
4B
330
9
100
AcDbSymbolTableRecord
100
AcDbRegAppTableRecord
  2
LibreCad
 70
    0
  0
ENDTAB
  0
TABLE
  2
DIMSTYLE
  5
A
330
0
100
AcDbSymbolTable
 70
    1
100
AcDbDimStyleTable
 71
    1
  0
DIMSTYLE
105
4C
330
A
100
AcDbSymbolTableRecord
100
AcDbDimStyleTableRecord
  2
Standard
 70
    0
 40
1
 41
3.302
 42
1
 43
0.38
 44
1
 45
0
 46
0
 47
0
 48
0
 49
1
140
3.5
141
0.09
142
0
143
25.4
144
2
145
0
146
1
147
1.524
148
0
 71
    0
 72
    0
 73
    1
 74
    1
 75
    0
 76
    0
 77
    0
 78
    0
 79
    0
170
    0
171
    2
172
    0
173
    0
174
    0
175
    0
176
    0
177
    0
178
    0
179
    0
271
    2
272
    4
273
    2
274
    2
275
    0
276
    0
277
    2
278
   44
279
    0
280
    0
281
    0
282
    0
283
    1
284
    0
285
    0
286
    0
288
    0
289
    3
340
Standard
341

371
   -2
372
   -2
  0
ENDTAB
  0
TABLE
  2
BLOCK_RECORD
  5
1
330
0
100
AcDbSymbolTable
 70
    2
  0
BLOCK_RECORD
  5
1F
330
1
100
AcDbSymbolTableRecord
100
AcDbBlockTableRecord
  2
*Model_Space
 70
    0
280
    1
281
    0
  0
BLOCK_RECORD
  5
1E
330
1
100
AcDbSymbolTableRecord
100
AcDbBlockTableRecord
  2
*Paper_Space
 70
    0
280
    1
281
    0
  0
ENDTAB
  0
ENDSEC
  0
SECTION
  2
BLOCKS
  0
BLOCK
  5
20
330
1F
100
AcDbEntity
  8
0
100
AcDbBlockBegin
  2
*Model_Space
 70
    0
 10
0
 20
0
 30
0
  3
*Model_Space
  1

  0
ENDBLK
  5
21
330
1F
100
AcDbEntity
  8
0
100
AcDbBlockEnd
  0
BLOCK
  5
1C
330
1B
100
AcDbEntity
  8
0
100
AcDbBlockBegin
  2
*Paper_Space
 70
    0
 10
0
 20
0
 30
0
  3
*Paper_Space
  1

  0
ENDBLK
  5
1D
330
1F
100
AcDbEntity
  8
0
100
AcDbBlockEnd
  0
ENDSEC
  0
SECTION
  2
ENTITIES
  0
ARC
  5
4D
100
AcDbEntity
  8
0
  6
CONTINUOUS
 62
    7
370
   15
100
AcDbCircle
 10
27.848957675
 20
212.6076377217
 40
5.00000000000001
100
AcDbArc
 50
360
 51
135
  0
CIRCLE
  5
4E
100
AcDbEntity
  8
0
  6
CONTINUOUS
 62
    7
370
   15
100
AcDbCircle
 10
11.3905882353
 20
158.0076377217
 40
1.500000000000002
  0
CIRCLE
  5
4F
100
AcDbEntity
  8
0
  6
CONTINUOUS
 62
    7
370
   15
100
AcDbCircle
 10
5.3905882353
 20
164.0076377217
 40
1.500000000000002
  0
CIRCLE
  5
50
100
AcDbEntity
  8
0
  6
CONTINUOUS
 62
    7
370
   15
100
AcDbCircle
 10
232.3905882353
 20
292.1076377217
 40
1.400000000000006
  0
CIRCLE
  5
51
100
AcDbEntity
  8
0
  6
CONTINUOUS
 62
    7
370
   15
100
AcDbCircle
 10
231.8905882353
 20
83.1076377217
 40
1.400000000000006
  0
CIRCLE
  5
52
100
AcDbEntity
  8
0
  6
CONTINUOUS
 62
    7
370
   15
100
AcDbCircle
 10
22.8905882353
 20
83.1076377217
 40
1.400000000000013
  0
ARC
  5
53
100
AcDbEntity
  8
0
  6
CONTINUOUS
 62
    7
370
   15
100
AcDbCircle
 10
127.3905882353
 20
187.6076377217
 40
25.00000000000001
100
AcDbArc
 50
359.1811175144
 51
97.66077402640001
  0
LINE
  5
54
100
AcDbEntity
  8
0
  6
CONTINUOUS
 62
    7
370
   15
100
AcDbLine
 10
234.2827206809
 20
279.786571899
 11
237.5327309925
 21
283.03657476
  0
LINE
  5
55
100
AcDbEntity
  8
0
  6
CONTINUOUS
 62
    7
370
   15
100
AcDbLine
 10
219.8195195157
 20
85.2081440776
 11
214.8697709996
 21
80.2583955615
  0
LINE
  5
56
100
AcDbEntity
  8
0
  6
CONTINUOUS
 62
    7
370
   15
100
AcDbLine
 10
34.9616593082
 20
88.17870546269999
 11
39.9114003737
 21
83.22895694659999
  0
LINE
  5
57
100
AcDbEntity
  8
0
  6
CONTINUOUS
 62
    7
370
   15
100
AcDbLine
 10
231.9114020426
 20
265.1873231321
 11
233.3256190974
 21
266.6015476375
  0
LINE
  5
58
100
AcDbEntity
  8
0
  6
CONTINUOUS
 62
    7
370
   15
100
AcDbLine
 10
229.7900801856
 20
270.1370716481
 11
233.3256190974
 21
266.6015476375
  0
LINE
  5
59
100
AcDbEntity
  8
0
  6
CONTINUOUS
 62
    7
370
   15
100
AcDbLine
 10
229.7900801856
 20
270.1370716481
 11
234.7398287017
 21
275.0868201642
  0
LINE
  5
5A
100
AcDbEntity
  8
0
  6
CONTINUOUS
 62
    7
370
   15
100
AcDbLine
 10
229.7900801856
 20
280.0365686803
 11
234.7398287017
 21
275.0868201642
  0
LINE
  5
5B
100
AcDbEntity
  8
0
  6
CONTINUOUS
 62
    7
370
   15
100
AcDbLine
 10
229.7900801856
 20
280.0365686803
 11
234.0327238996
 21
284.2791974931
  0
LINE
  5
5C
100
AcDbEntity
  8
0
  6
CONTINUOUS
 62
    7
370
   15
100
AcDbLine
 10
234.0327238996
 20
284.2791974931
 11
234.0327238996
 21
287.1076465039
  0
LINE
  5
5D
100
AcDbEntity
  8
0
  6
CONTINUOUS
 62
    7
370
   15
100
AcDbLine
 10
234.0327238996
 20
287.1076465039
 11
226.8905898888
 21
287.1076465039
  0
LINE
  5
5E
100
AcDbEntity
  8
0
  6
CONTINUOUS
 62
    7
370
   15
100
AcDbLine
 10
226.8905898888
 20
294.1076457887
 11
226.8905898888
 21
287.1076465039
  0
LINE
  5
5F
100
AcDbEntity
  8
0
  6
CONTINUOUS
 62
    7
370
   15
100
AcDbLine
 10
224.0621632297
 20
294.1076457887
 11
226.8905898888
 21
294.1076457887
  0
LINE
  5
60
100
AcDbEntity
  8
0
  6
CONTINUOUS
 62
    7
370
   15
100
AcDbLine
 10
219.8195195157
 20
289.8649871736
 11
224.0621632297
 21
294.1076457887
  0
LINE
  5
61
100
AcDbEntity
  8
0
  6
CONTINUOUS
 62
    7
370
   15
100
AcDbLine
 10
219.8195195157
 20
289.8649871736
 11
214.8697709996
 21
294.8147356897
  0
LINE
  5
62
100
AcDbEntity
  8
0
  6
CONTINUOUS
 62
    7
370
   15
100
AcDbLine
 10
209.9200224835
 20
289.8649871736
 11
214.8697709996
 21
294.8147356897
  0
LINE
  5
63
100
AcDbEntity
  8
0
  6
CONTINUOUS
 62
    7
370
   15
100
AcDbLine
 10
209.9200224835
 20
289.8649871736
 11
206.3844910223
 21
293.4005260854
  0
LINE
  5
64
100
AcDbEntity
  8
0
  6
CONTINUOUS
 62
    7
370
   15
100
AcDbLine
 10
204.970281418
 20
291.9863164811
 11
206.3844910223
 21
293.4005260854
  0
LINE
  5
65
100
AcDbEntity
  8
0
  6
CONTINUOUS
 62
    7
370
   15
100
AcDbLine
 10
209.9200224835
 20
287.036567965
 11
214.8697709996
 21
291.9863164811
  0
LINE
  5
66
100
AcDbEntity
  8
0
  6
CONTINUOUS
 62
    7
370
   15
100
AcDbLine
 10
27.9616525728
 20
280.0365686803
 11
23.0119115073
 21
275.0868201642
  0
LINE
  5
67
100
AcDbEntity
  8
0
  6
CONTINUOUS
 62
    7
370
   15
100
AcDbLine
 10
27.9616525728
 20
280.0365686803
 11
22.8905862529
 21
285.1076424508
  0
LINE
  5
68
100
AcDbEntity
  8
0
  6
CONTINUOUS
 62
    7
370
   15
100
AcDbLine
 10
22.8905862529
 20
285.1076424508
 11
29.8905855376
 21
285.1076424508
  0
LINE
  5
69
100
AcDbEntity
  8
0
  6
CONTINUOUS
 62
    7
370
   15
100
AcDbLine
 10
29.8905855376
 20
292.249769011
 11
29.8905855376
 21
285.1076424508
  0
LINE
  5
6A
100
AcDbEntity
  8
0
  6
CONTINUOUS
 62
    7
370
   15
100
AcDbLine
 10
34.9616593082
 20
287.1786952405
 11
29.8905855376
 21
292.249769011
  0
LINE
  5
6B
100
AcDbEntity
  8
0
  6
CONTINUOUS
 62
    7
370
   15
100
AcDbLine
 10
44.8611488897
 20
287.1786952405
 11
39.9114003737
 21
292.1284437566
  0
LINE
  5
6C
100
AcDbEntity
  8
0
  6
CONTINUOUS
 62
    7
370
   15
100
AcDbLine
 10
49.8108974058
 20
292.1284437566
 11
48.3966840763
 21
293.5426533609
  0
LINE
  5
6D
100
AcDbEntity
  8
0
  6
CONTINUOUS
 62
    7
370
   15
100
AcDbLine
 10
44.8611488897
 20
290.0071442514
 11
48.3966840763
 21
293.5426533609
  0
LINE
  5
6E
100
AcDbEntity
  8
0
  6
CONTINUOUS
 62
    7
370
   15
100
AcDbLine
 10
44.8611488897
 20
290.0071442514
 11
39.9114003737
 21
294.9568927674
  0
LINE
  5
6F
100
AcDbEntity
  8
0
  6
CONTINUOUS
 62
    7
370
   15
100
AcDbLine
 10
34.9616593082
 20
290.0071442514
 11
39.9114003737
 21
294.9568927674
  0
LINE
  5
70
100
AcDbEntity
  8
0
  6
CONTINUOUS
 62
    7
370
   15
100
AcDbLine
 10
34.9616593082
 20
290.0071442514
 11
30.7190155942
 21
294.2497730642
  0
LINE
  5
71
100
AcDbEntity
  8
0
  6
CONTINUOUS
 62
    7
370
   15
100
AcDbLine
 10
30.7190155942
 20
294.2497730642
 11
27.8905889351
 21
294.2497730642
  0
LINE
  5
72
100
AcDbEntity
  8
0
  6
CONTINUOUS
 62
    7
370
   15
100
AcDbLine
 10
27.8905889351
 20
294.2497730642
 11
27.8905889351
 21
287.1076465039
  0
LINE
  5
73
100
AcDbEntity
  8
0
  6
CONTINUOUS
 62
    7
370
   15
100
AcDbLine
 10
20.8905896504
 20
287.1076465039
 11
27.8905889351
 21
287.1076465039
  0
LINE
  5
74
100
AcDbEntity
  8
0
  6
CONTINUOUS
 62
    7
370
   15
100
AcDbLine
 10
20.8905896504
 20
284.2791974931
 11
20.8905896504
 21
287.1076465039
  0
LINE
  5
75
100
AcDbEntity
  8
0
  6
CONTINUOUS
 62
    7
370
   15
100
AcDbLine
 10
25.1332259137
 20
280.0365686803
 11
20.8905896504
 21
284.2791974931
  0
LINE
  5
76
100
AcDbEntity
  8
0
  6
CONTINUOUS
 62
    7
370
   15
100
AcDbLine
 10
25.1332259137
 20
280.0365686803
 11
20.1834848482
 21
275.0868201642
  0
LINE
  5
77
100
AcDbEntity
  8
0
  6
CONTINUOUS
 62
    7
370
   15
100
AcDbLine
 10
25.1332259137
 20
270.1370716481
 11
20.1834848482
 21
275.0868201642
  0
LINE
  5
78
100
AcDbEntity
  8
0
  6
CONTINUOUS
 62
    7
370
   15
100
AcDbLine
 10
25.1332259137
 20
270.1370716481
 11
21.5976944525
 21
266.6015476375
  0
LINE
  5
79
100
AcDbEntity
  8
0
  6
CONTINUOUS
 62
    7
370
   15
100
AcDbLine
 10
23.0119115073
 20
265.1873231321
 11
21.5976944525
 21
266.6015476375
  0
LINE
  5
7A
100
AcDbEntity
  8
0
  6
CONTINUOUS
 62
    7
370
   15
100
AcDbLine
 10
27.9616525728
 20
270.1370716481
 11
23.0119115073
 21
265.1873231321
  0
LINE
  5
7B
100
AcDbEntity
  8
0
  6
CONTINUOUS
 62
    7
370
   15
100
AcDbLine
 10
27.9616525728
 20
270.1370716481
 11
23.0119115073
 21
275.0868201642
  0
CIRCLE
  5
7C
100
AcDbEntity
  8
0
  6
CONTINUOUS
 62
    7
370
   15
100
AcDbCircle
 10
8.390588235299999
 20
234.2076377217
 40
2.500000000000002
  0
CIRCLE
  5
7D
100
AcDbEntity
  8
0
  6
CONTINUOUS
 62
    7
370
   15
100
AcDbCircle
 10
8.390588235299999
 20
141.0076377217
 40
2.500000000000002
  0
CIRCLE
  5
7E
100
AcDbEntity
  8
0
  6
CONTINUOUS
 62
    7
370
   15
100
AcDbCircle
 10
246.3905882353
 20
187.6076377217
 40
2.5
  0
CIRCLE
  5
7F
100
AcDbEntity
  8
0
  6
CONTINUOUS
 62
    7
370
   15
100
AcDbCircle
 10
22.8905882353
 20
292.1076377217
 40
1.399999999999956
  0
CIRCLE
  5
80
100
AcDbEntity
  8
0
  6
CONTINUOUS
 62
    7
370
   15
100
AcDbCircle
 10
127.3905882353
 20
187.6076377217
 40
3.000000000000014
  0
CIRCLE
  5
81
100
AcDbEntity
  8
0
  6
CONTINUOUS
 62
    7
370
   15
100
AcDbCircle
 10
5.3905882353
 20
211.2076377217
 40
1.500000000000002
  0
CIRCLE
  5
82
100
AcDbEntity
  8
0
  6
CONTINUOUS
 62
    7
370
   15
100
AcDbCircle
 10
11.3905882353
 20
217.2076377217
 40
1.500000000000002
  0
ARC
  5
83
100
AcDbEntity
  8
0
  6
CONTINUOUS
 62
    7
370
   15
100
AcDbCircle
 10
127.3905882353
 20
187.6076377217
 40
25.00000000000002
100
AcDbArc
 50
119.1811175144
 51
217.6607740265
  0
ARC
  5
84
100
AcDbEntity
  8
0
  6
CONTINUOUS
 62
    7
370
   15
100
AcDbCircle
 10
130.3905882353
 20
182.6076377217
 40
25
100
AcDbArc
 50
148.2955399999
 51
204.2667390377
  0
ARC
  5
85
100
AcDbEntity
  8
0
  6
CONTINUOUS
 62
    7
370
   15
100
AcDbCircle
 10
127.3905882353
 20
187.6076377217
 40
20.00000000000004
100
AcDbArc
 50
78.5294702679
 51
155.9883524515
  0
ARC
  5
86
100
AcDbEntity
  8
0
  6
CONTINUOUS
 62
    7
370
   15
100
AcDbCircle
 10
120.0604612164
 20
184.911485299
 40
25
100
AcDbArc
 50
63.1088994749
 51
101.207740301
  0
ARC
  5
87
100
AcDbEntity
  8
0
  6
CONTINUOUS
 62
    7
370
   15
100
AcDbCircle
 10
130.2207152542
 20
192.7057139331
 40
25
100
AcDbArc
 50
268.2955399999
 51
324.2667390377
  0
ARC
  5
88
100
AcDbEntity
  8
0
  6
CONTINUOUS
 62
    7
370
   15
100
AcDbCircle
 10
127.3905882353
 20
187.6076377217
 40
20.00000000000001
100
AcDbArc
 50
198.5294702679
 51
275.9883524515
  0
ARC
  5
89
100
AcDbEntity
  8
0
  6
CONTINUOUS
 62
    7
370
   15
100
AcDbCircle
 10
133.3905882353
 20
182.6076377217
 40
24.99999999999999
100
AcDbArc
 50
183.1088994749
 51
221.207740301
  0
LINE
  5
8A
100
AcDbEntity
  8
0
  6
CONTINUOUS
 62
    7
370
   15
100
AcDbLine
 10
219.8195195157
 20
287.036567965
 11
224.8905858357
 21
292.1076417356
  0
ARC
  5
8B
100
AcDbEntity
  8
0
  6
CONTINUOUS
 62
    7
370
   15
100
AcDbCircle
 10
127.3905882353
 20
187.6076377217
 40
24.99999999999999
100
AcDbArc
 50
239.1811175144
 51
337.6607740265
  0
LINE
  5
8C
100
AcDbEntity
  8
0
  6
CONTINUOUS
 62
    7
370
   15
100
AcDbLine
 10
232.032727297
 20
285.1076424508
 11
224.8905858357
 21
285.1076424508
  0
LINE
  5
8D
100
AcDbEntity
  8
0
  6
CONTINUOUS
 62
    7
370
   15
100
AcDbLine
 10
226.9616535265
 20
280.0365686803
 11
232.032727297
 21
285.1076424508
  0
LINE
  5
8E
100
AcDbEntity
  8
0
  6
CONTINUOUS
 62
    7
370
   15
100
AcDbLine
 10
226.9616535265
 20
280.0365686803
 11
231.9114020426
 21
275.0868201642
  0
LINE
  5
8F
100
AcDbEntity
  8
0
  6
CONTINUOUS
 62
    7
370
   15
100
AcDbLine
 10
226.9616535265
 20
270.1370716481
 11
231.9114020426
 21
275.0868201642
  0
LINE
  5
90
100
AcDbEntity
  8
0
  6
CONTINUOUS
 62
    7
370
   15
100
AcDbLine
 10
226.9616535265
 20
270.1370716481
 11
231.9114020426
 21
265.1873231321
  0
LINE
  5
91
100
AcDbEntity
  8
0
  6
CONTINUOUS
 62
    7
370
   15
100
AcDbLine
 10
34.9616593082
 20
88.17870546269999
 11
29.8905855376
 21
83.1076391428
  0
LINE
  5
92
100
AcDbEntity
  8
0
  6
CONTINUOUS
 62
    7
370
   15
100
AcDbLine
 10
29.8905855376
 20
83.1076391428
 11
29.8905855376
 21
90.10763842750001
  0
LINE
  5
93
100
AcDbEntity
  8
0
  6
CONTINUOUS
 62
    7
370
   15
100
AcDbLine
 10
22.7484515268
 20
90.10763842750001
 11
29.8905855376
 21
90.10763842750001
  0
LINE
  5
94
100
AcDbEntity
  8
0
  6
CONTINUOUS
 62
    7
370
   15
100
AcDbLine
 10
27.8195178468
 20
95.17870474750001
 11
22.7484515268
 21
90.10763842750001
  0
LINE
  5
95
100
AcDbEntity
  8
0
  6
CONTINUOUS
 62
    7
370
   15
100
AcDbLine
 10
27.8195178468
 20
95.17870474750001
 11
22.8697693307
 21
100.1284495382
  0
LINE
  5
96
100
AcDbEntity
  8
0
  6
CONTINUOUS
 62
    7
370
   15
100
AcDbLine
 10
27.8195178468
 20
105.0781980543
 11
22.8697693307
 21
100.1284495382
  0
LINE
  5
97
100
AcDbEntity
  8
0
  6
CONTINUOUS
 62
    7
370
   15
100
AcDbLine
 10
27.8195178468
 20
105.0781980543
 11
22.8697693307
 21
110.0279465704
  0
LINE
  5
98
100
AcDbEntity
  8
0
  6
CONTINUOUS
 62
    7
370
   15
100
AcDbLine
 10
22.8697693307
 20
110.0279465704
 11
21.4555597264
 21
108.6137369661
  0
LINE
  5
99
100
AcDbEntity
  8
0
  6
CONTINUOUS
 62
    7
370
   15
100
AcDbLine
 10
24.9910911877
 20
105.0781980543
 11
21.4555597264
 21
108.6137369661
  0
LINE
  5
9A
100
AcDbEntity
  8
0
  6
CONTINUOUS
 62
    7
370
   15
100
AcDbLine
 10
24.9910911877
 20
105.0781980543
 11
20.0413426716
 21
100.1284495382
  0
LINE
  5
9B
100
AcDbEntity
  8
0
  6
CONTINUOUS
 62
    7
370
   15
100
AcDbLine
 10
24.9910911877
 20
95.17870474750001
 11
20.0413426716
 21
100.1284495382
  0
LINE
  5
9C
100
AcDbEntity
  8
0
  6
CONTINUOUS
 62
    7
370
   15
100
AcDbLine
 10
24.9910911877
 20
95.17870474750001
 11
20.7484549243
 21
90.9360647588
  0
LINE
  5
9D
100
AcDbEntity
  8
0
  6
CONTINUOUS
 62
    7
370
   15
100
AcDbLine
 10
20.7484549243
 20
90.9360647588
 11
20.7484549243
 21
88.1076380997
  0
LINE
  5
9E
100
AcDbEntity
  8
0
  6
CONTINUOUS
 62
    7
370
   15
100
AcDbLine
 10
20.7484549243
 20
88.1076380997
 11
27.8905889351
 21
88.1076380997
  0
LINE
  5
9F
100
AcDbEntity
  8
0
  6
CONTINUOUS
 62
    7
370
   15
100
AcDbLine
 10
27.8905889351
 20
81.1076388149
 11
27.8905889351
 21
88.1076380997
  0
LINE
  5
A0
100
AcDbEntity
  8
0
  6
CONTINUOUS
 62
    7
370
   15
100
AcDbLine
 10
30.7190155942
 20
81.1076388149
 11
27.8905889351
 21
81.1076388149
  0
LINE
  5
A1
100
AcDbEntity
  8
0
  6
CONTINUOUS
 62
    7
370
   15
100
AcDbLine
 10
34.9616593082
 20
85.35027880360001
 11
30.7190155942
 21
81.1076388149
  0
LINE
  5
A2
100
AcDbEntity
  8
0
  6
CONTINUOUS
 62
    7
370
   15
100
AcDbLine
 10
34.9616593082
 20
85.35027880360001
 11
39.9114003737
 21
80.4005302875
  0
LINE
  5
A3
100
AcDbEntity
  8
0
  6
CONTINUOUS
 62
    7
370
   15
100
AcDbLine
 10
44.8611488897
 20
85.35027880360001
 11
39.9114003737
 21
80.4005302875
  0
LINE
  5
A4
100
AcDbEntity
  8
0
  6
CONTINUOUS
 62
    7
370
   15
100
AcDbLine
 10
44.8611488897
 20
85.35027880360001
 11
48.3966840763
 21
81.81474361710001
  0
LINE
  5
A5
100
AcDbEntity
  8
0
  6
CONTINUOUS
 62
    7
370
   15
100
AcDbLine
 10
49.8108974058
 20
83.22895694659999
 11
48.3966840763
 21
81.81474361710001
  0
LINE
  5
A6
100
AcDbEntity
  8
0
  6
CONTINUOUS
 62
    7
370
   15
100
AcDbLine
 10
44.8611488897
 20
88.17870546269999
 11
49.8108974058
 21
83.22895694659999
  0
LINE
  5
A7
100
AcDbEntity
  8
0
  6
CONTINUOUS
 62
    7
370
   15
100
AcDbLine
 10
44.8611488897
 20
88.17870546269999
 11
39.9114003737
 21
83.22895694659999
  0
LINE
  5
A8
100
AcDbEntity
  8
0
  6
CONTINUOUS
 62
    7
370
   15
100
AcDbLine
 10
219.8195195157
 20
85.2081440776
 11
224.0621632297
 21
80.9655003636
  0
LINE
  5
A9
100
AcDbEntity
  8
0
  6
CONTINUOUS
 62
    7
370
   15
100
AcDbLine
 10
34.9616593082
 20
287.1786952405
 11
39.9114003737
 21
292.1284437566
  0
LINE
  5
AA
100
AcDbEntity
  8
0
  6
CONTINUOUS
 62
    7
370
   15
100
AcDbLine
 10
226.8905898888
 20
80.9655003636
 11
226.8905898888
 21
88.1076380997
  0
LINE
  5
AB
100
AcDbEntity
  8
0
  6
CONTINUOUS
 62
    7
370
   15
100
AcDbLine
 10
233.8905891735
 20
88.1076380997
 11
226.8905898888
 21
88.1076380997
  0
LINE
  5
AC
100
AcDbEntity
  8
0
  6
CONTINUOUS
 62
    7
370
   15
100
AcDbLine
 10
233.8905891735
 20
90.9360647588
 11
233.8905891735
 21
88.1076380997
  0
LINE
  5
AD
100
AcDbEntity
  8
0
  6
CONTINUOUS
 62
    7
370
   15
100
AcDbLine
 10
229.6479454596
 20
95.17870474750001
 11
233.8905891735
 21
90.9360647588
  0
LINE
  5
AE
100
AcDbEntity
  8
0
  6
CONTINUOUS
 62
    7
370
   15
100
AcDbLine
 10
229.6479454596
 20
95.17870474750001
 11
234.5976939756
 21
100.1284495382
  0
LINE
  5
AF
100
AcDbEntity
  8
0
  6
CONTINUOUS
 62
    7
370
   15
100
AcDbLine
 10
229.6479454596
 20
105.0781980543
 11
234.5976939756
 21
100.1284495382
  0
LINE
  5
B0
100
AcDbEntity
  8
0
  6
CONTINUOUS
 62
    7
370
   15
100
AcDbLine
 10
229.6479454596
 20
105.0781980543
 11
233.1834843714
 21
108.6137369661
  0
LINE
  5
B1
100
AcDbEntity
  8
0
  6
CONTINUOUS
 62
    7
370
   15
100
AcDbLine
 10
231.7692673165
 20
110.0279465704
 11
233.1834843714
 21
108.6137369661
  0
LINE
  5
B2
100
AcDbEntity
  8
0
  6
CONTINUOUS
 62
    7
370
   15
100
AcDbLine
 10
226.8195188005
 20
105.0781980543
 11
231.7692673165
 21
110.0279465704
  0
LINE
  5
B3
100
AcDbEntity
  8
0
  6
CONTINUOUS
 62
    7
370
   15
100
AcDbLine
 10
226.8195188005
 20
105.0781980543
 11
231.7692673165
 21
100.1284495382
  0
LINE
  5
B4
100
AcDbEntity
  8
0
  6
CONTINUOUS
 62
    7
370
   15
100
AcDbLine
 10
226.8195188005
 20
95.17870474750001
 11
231.7692673165
 21
100.1284495382
  0
LINE
  5
B5
100
AcDbEntity
  8
0
  6
CONTINUOUS
 62
    7
370
   15
100
AcDbLine
 10
226.8195188005
 20
95.17870474750001
 11
231.8905851204
 21
90.10763842750001
  0
LINE
  5
B6
100
AcDbEntity
  8
0
  6
CONTINUOUS
 62
    7
370
   15
100
AcDbLine
 10
231.8905851204
 20
90.10763842750001
 11
224.8905858357
 21
90.10763842750001
  0
LINE
  5
B7
100
AcDbEntity
  8
0
  6
CONTINUOUS
 62
    7
370
   15
100
AcDbLine
 10
224.8905858357
 20
82.9655006914
 11
224.8905858357
 21
90.10763842750001
  0
LINE
  5
B8
100
AcDbEntity
  8
0
  6
CONTINUOUS
 62
    7
370
   15
100
AcDbLine
 10
219.8195195157
 20
88.0365707367
 11
224.8905858357
 21
82.9655006914
  0
LINE
  5
B9
100
AcDbEntity
  8
0
  6
CONTINUOUS
 62
    7
370
   15
100
AcDbLine
 10
219.8195195157
 20
88.0365707367
 11
214.8697709996
 21
83.0868222206
  0
LINE
  5
BA
100
AcDbEntity
  8
0
  6
CONTINUOUS
 62
    7
370
   15
100
AcDbLine
 10
209.9200224835
 20
88.0365707367
 11
214.8697709996
 21
83.0868222206
  0
LINE
  5
BB
100
AcDbEntity
  8
0
  6
CONTINUOUS
 62
    7
370
   15
100
AcDbLine
 10
209.9200224835
 20
88.0365707367
 11
204.970281418
 21
83.0868222206
  0
LINE
  5
BC
100
AcDbEntity
  8
0
  6
CONTINUOUS
 62
    7
370
   15
100
AcDbLine
 10
204.970281418
 20
83.0868222206
 11
206.3844910223
 21
81.672608891
  0
LINE
  5
BD
100
AcDbEntity
  8
0
  6
CONTINUOUS
 62
    7
370
   15
100
AcDbLine
 10
209.9200224835
 20
85.2081440776
 11
206.3844910223
 21
81.672608891
  0
LINE
  5
BE
100
AcDbEntity
  8
0
  6
CONTINUOUS
 62
    7
370
   15
100
AcDbLine
 10
209.9200224835
 20
85.2081440776
 11
214.8697709996
 21
80.2583955615
  0
LINE
  5
BF
100
AcDbEntity
  8
0
  6
CONTINUOUS
 62
    7
370
   15
100
AcDbLine
 10
234.2827206809
 20
279.786571899
 11
237.0327225287
 21
277.0365626006
  0
LINE
  5
C0
100
AcDbEntity
  8
0
  6
CONTINUOUS
 62
    7
370
   15
100
AcDbLine
 10
237.0327225287
 20
277.0365626006
 11
237.0327225287
 21
273.1370777278
  0
LINE
  5
C1
100
AcDbEntity
  8
0
  6
CONTINUOUS
 62
    7
370
   15
100
AcDbLine
 10
234.0327238996
 20
270.1370716481
 11
237.0327225287
 21
273.1370777278
  0
LINE
  5
C2
100
AcDbEntity
  8
0
  6
CONTINUOUS
 62
    7
370
   15
100
AcDbLine
 10
234.0327238996
 20
270.1370716481
 11
237.0327225287
 21
267.1370804696
  0
LINE
  5
C3
100
AcDbEntity
  8
0
  6
CONTINUOUS
 62
    7
370
   15
100
AcDbLine
 10
237.0327225287
 20
267.1370804696
 11
237.0089551766
 21
256.3482672362
  0
ARC
  5
C4
100
AcDbEntity
  8
0
  6
CONTINUOUS
 62
    7
370
   15
100
AcDbCircle
 10
242.0089477807
 20
256.3372515491
 40
5.000000000000043
100
AcDbArc
 50
179.8737977808
 51
195
  0
LINE
  5
C5
100
AcDbEntity
  8
0
  6
CONTINUOUS
 62
    7
370
   15
100
AcDbLine
 10
237.1793201525
 20
255.0431490331
 11
253.2202115614
 21
195.1777041345
  0
ARC
  5
C6
100
AcDbEntity
  8
0
  6
CONTINUOUS
 62
    7
370
   15
100
AcDbCircle
 10
248.3905882353
 20
193.8836120854
 40
5.000000000000036
100
AcDbArc
 50
0
 51
15
  0
LINE
  5
C7
100
AcDbEntity
  8
0
  6
CONTINUOUS
 62
    7
370
   15
100
AcDbLine
 10
253.3905914385
 20
193.8836127906
 11
253.3905914385
 21
181.2659055381
  0
ARC
  5
C8
100
AcDbEntity
  8
0
  6
CONTINUOUS
 62
    7
370
   15
100
AcDbCircle
 10
248.3905882353
 20
181.2659002096
 40
5.000000000000028
100
AcDbArc
 50
345
 51
0
  0
LINE
  5
C9
100
AcDbEntity
  8
0
  6
CONTINUOUS
 62
    7
370
   15
100
AcDbLine
 10
209.9200224835
 20
287.036567965
 11
204.970281418
 21
291.9863164811
  0
ARC
  5
CA
100
AcDbEntity
  8
0
  6
CONTINUOUS
 62
    7
370
   15
100
AcDbCircle
 10
242.3905882353
 20
120.2365623127
 40
5.000000000000017
100
AcDbArc
 50
165
 51
180
  0
LINE
  5
CB
100
AcDbEntity
  8
0
  6
CONTINUOUS
 62
    7
370
   15
100
AcDbLine
 10
237.3905888159
 20
120.236560741
 11
237.3905888159
 21
108.078204134
  0
LINE
  5
CC
100
AcDbEntity
  8
0
  6
CONTINUOUS
 62
    7
370
   15
100
AcDbLine
 10
234.1405859549
 20
104.828201273
 11
237.3905888159
 21
108.078204134
  0
LINE
  5
CD
100
AcDbEntity
  8
0
  6
CONTINUOUS
 62
    7
370
   15
100
AcDbLine
 10
234.1405859549
 20
104.828201273
 11
236.8905952532
 21
102.0781994252
  0
LINE
  5
CE
100
AcDbEntity
  8
0
  6
CONTINUOUS
 62
    7
370
   15
100
AcDbLine
 10
236.8905952532
 20
98.1787071018
 11
236.8905952532
 21
102.0781994252
  0
LINE
  5
CF
100
AcDbEntity
  8
0
  6
CONTINUOUS
 62
    7
370
   15
100
AcDbLine
 10
233.8905891735
 20
95.17870474750001
 11
236.8905952532
 21
98.1787071018
  0
LINE
  5
D0
100
AcDbEntity
  8
0
  6
CONTINUOUS
 62
    7
370
   15
100
AcDbLine
 10
233.8905891735
 20
95.17870474750001
 11
236.8905952532
 21
92.1787061184
  0
LINE
  5
D1
100
AcDbEntity
  8
0
  6
CONTINUOUS
 62
    7
370
   15
100
AcDbLine
 10
236.8905952532
 20
83.1076391428
 11
236.8905952532
 21
92.1787061184
  0
ARC
  5
D2
100
AcDbEntity
  8
0
  6
CONTINUOUS
 62
    7
370
   15
100
AcDbCircle
 10
231.8905882353
 20
83.1076377217
 40
5
100
AcDbArc
 50
270
 51
0
  0
LINE
  5
D3
100
AcDbEntity
  8
0
  6
CONTINUOUS
 62
    7
370
   15
100
AcDbLine
 10
222.8195181448
 20
77.96550173449999
 11
231.8905851204
 21
78.10763646060001
  0
LINE
  5
D4
100
AcDbEntity
  8
0
  6
CONTINUOUS
 62
    7
370
   15
100
AcDbLine
 10
219.8195195157
 20
80.9655003636
 11
222.8195181448
 21
77.96550173449999
  0
LINE
  5
D5
100
AcDbEntity
  8
0
  6
CONTINUOUS
 62
    7
370
   15
100
AcDbLine
 10
219.8195195157
 20
80.9655003636
 11
216.8195208866
 21
77.96550173449999
  0
LINE
  5
D6
100
AcDbEntity
  8
0
  6
CONTINUOUS
 62
    7
370
   15
100
AcDbLine
 10
216.8195208866
 20
77.96550173449999
 11
212.9200285632
 21
77.96550173449999
  0
LINE
  5
D7
100
AcDbEntity
  8
0
  6
CONTINUOUS
 62
    7
370
   15
100
AcDbLine
 10
209.9200224835
 20
80.9655003636
 11
212.9200285632
 21
77.96550173449999
  0
LINE
  5
D8
100
AcDbEntity
  8
0
  6
CONTINUOUS
 62
    7
370
   15
100
AcDbLine
 10
209.9200224835
 20
80.9655003636
 11
206.9200238545
 21
77.96550173449999
  0
LINE
  5
D9
100
AcDbEntity
  8
0
  6
CONTINUOUS
 62
    7
370
   15
100
AcDbLine
 10
206.9200238545
 20
77.96550173449999
 11
47.8611512441
 21
78.10763646060001
  0
LINE
  5
DA
100
AcDbEntity
  8
0
  6
CONTINUOUS
 62
    7
370
   15
100
AcDbLine
 10
44.8611488897
 20
81.1076388149
 11
47.8611512441
 21
78.10763646060001
  0
LINE
  5
DB
100
AcDbEntity
  8
0
  6
CONTINUOUS
 62
    7
370
   15
100
AcDbLine
 10
44.8611488897
 20
81.1076388149
 11
41.8611502606
 21
78.10763646060001
  0
LINE
  5
DC
100
AcDbEntity
  8
0
  6
CONTINUOUS
 62
    7
370
   15
100
AcDbLine
 10
37.9616579372
 20
78.10763646060001
 11
41.8611502606
 21
78.10763646060001
  0
LINE
  5
DD
100
AcDbEntity
  8
0
  6
CONTINUOUS
 62
    7
370
   15
100
AcDbLine
 10
34.9616593082
 20
81.1076388149
 11
37.9616579372
 21
78.10763646060001
  0
LINE
  5
DE
100
AcDbEntity
  8
0
  6
CONTINUOUS
 62
    7
370
   15
100
AcDbLine
 10
34.9616593082
 20
81.1076388149
 11
31.9616532285
 21
78.10763646060001
  0
LINE
  5
DF
100
AcDbEntity
  8
0
  6
CONTINUOUS
 62
    7
370
   15
100
AcDbLine
 10
22.8905862529
 20
78.10763646060001
 11
31.9616532285
 21
78.10763646060001
  0
ARC
  5
E0
100
AcDbEntity
  8
0
  6
CONTINUOUS
 62
    7
370
   15
100
AcDbCircle
 10
22.8905882353
 20
83.1076377217
 40
5.000000000000004
100
AcDbArc
 50
180
 51
270
  0
LINE
  5
E1
100
AcDbEntity
  8
0
  6
CONTINUOUS
 62
    7
370
   15
100
AcDbLine
 10
17.7484562952
 20
92.1787061184
 11
17.8905910213
 21
83.1076391428
  0
LINE
  5
E2
100
AcDbEntity
  8
0
  6
CONTINUOUS
 62
    7
370
   15
100
AcDbLine
 10
20.7484549243
 20
95.17870474750001
 11
17.7484562952
 21
92.1787061184
  0
LINE
  5
E3
100
AcDbEntity
  8
0
  6
CONTINUOUS
 62
    7
370
   15
100
AcDbLine
 10
20.7484549243
 20
95.17870474750001
 11
17.7484562952
 21
98.1787071018
  0
LINE
  5
E4
100
AcDbEntity
  8
0
  6
CONTINUOUS
 62
    7
370
   15
100
AcDbLine
 10
17.7484562952
 20
98.1787071018
 11
17.7484562952
 21
102.0781994252
  0
LINE
  5
E5
100
AcDbEntity
  8
0
  6
CONTINUOUS
 62
    7
370
   15
100
AcDbLine
 10
20.7484549243
 20
105.0781980543
 11
17.7484562952
 21
102.0781994252
  0
LINE
  5
E6
100
AcDbEntity
  8
0
  6
CONTINUOUS
 62
    7
370
   15
100
AcDbLine
 10
20.7484549243
 20
105.0781980543
 11
17.7484562952
 21
108.078204134
  0
LINE
  5
E7
100
AcDbEntity
  8
0
  6
CONTINUOUS
 62
    7
370
   15
100
AcDbLine
 10
17.7484562952
 20
108.078204134
 11
18.2016825635
 21
128.8988218098
  0
ARC
  5
E8
100
AcDbEntity
  8
0
  6
CONTINUOUS
 62
    7
370
   15
100
AcDbCircle
 10
13.2028691631
 20
129.0076377217
 40
5.000000000000016
100
AcDbArc
 50
358.752957558
 51
90
  0
LINE
  5
E9
100
AcDbEntity
  8
0
  6
CONTINUOUS
 62
    7
370
   15
100
AcDbLine
 10
6.3905900676
 20
134.0076402216
 11
13.2028719742
 21
134.0076402216
  0
ARC
  5
EA
100
AcDbEntity
  8
0
  6
CONTINUOUS
 62
    7
370
   15
100
AcDbCircle
 10
6.3905882353
 20
139.0076377217
 40
5.000000000000005
100
AcDbArc
 50
180
 51
270
  0
LINE
  5
EB
100
AcDbEntity
  8
0
  6
CONTINUOUS
 62
    7
370
   15
100
AcDbLine
 10
1.3905873854
 20
236.2076342492
 11
1.3905873854
 21
139.0076354532
  0
ARC
  5
EC
100
AcDbEntity
  8
0
  6
CONTINUOUS
 62
    7
370
   15
100
AcDbCircle
 10
6.3905882353
 20
236.2076377217
 40
5.000000000000005
100
AcDbArc
 50
90
 51
180
  0
LINE
  5
ED
100
AcDbEntity
  8
0
  6
CONTINUOUS
 62
    7
370
   15
100
AcDbLine
 10
6.3905900676
 20
241.207644382
 11
12.890588339
 21
241.207644382
  0
LINE
  5
EE
100
AcDbEntity
  8
0
  6
CONTINUOUS
 62
    7
370
   15
100
AcDbLine
 10
44.8611488897
 20
287.1786952405
 11
49.8108974058
 21
292.1284437566
  0
LINE
  5
EF
100
AcDbEntity
  8
0
  6
CONTINUOUS
 62
    7
370
   15
100
AcDbLine
 10
17.8905910213
 20
267.1370804696
 11
17.8905910213
 21
246.2076396136
  0
LINE
  5
F0
100
AcDbEntity
  8
0
  6
CONTINUOUS
 62
    7
370
   15
100
AcDbLine
 10
20.8905896504
 20
270.1370716481
 11
17.8905910213
 21
267.1370804696
  0
LINE
  5
F1
100
AcDbEntity
  8
0
  6
CONTINUOUS
 62
    7
370
   15
100
AcDbLine
 10
20.8905896504
 20
270.1370716481
 11
17.8905910213
 21
273.1370777278
  0
LINE
  5
F2
100
AcDbEntity
  8
0
  6
CONTINUOUS
 62
    7
370
   15
100
AcDbLine
 10
17.8905910213
 20
277.0365626006
 11
17.8905910213
 21
273.1370777278
  0
LINE
  5
F3
100
AcDbEntity
  8
0
  6
CONTINUOUS
 62
    7
370
   15
100
AcDbLine
 10
20.8905896504
 20
280.0365686803
 11
17.8905910213
 21
277.0365626006
  0
LINE
  5
F4
100
AcDbEntity
  8
0
  6
CONTINUOUS
 62
    7
370
   15
100
AcDbLine
 10
20.8905896504
 20
280.0365686803
 11
17.8905910213
 21
283.03657476
  0
LINE
  5
F5
100
AcDbEntity
  8
0
  6
CONTINUOUS
 62
    7
370
   15
100
AcDbLine
 10
17.8905910213
 20
292.1076417356
 11
17.8905910213
 21
283.03657476
  0
ARC
  5
F6
100
AcDbEntity
  8
0
  6
CONTINUOUS
 62
    7
370
   15
100
AcDbCircle
 10
22.8905882353
 20
292.1076377217
 40
5.000000000000004
100
AcDbArc
 50
90
 51
180
  0
LINE
  5
F7
100
AcDbEntity
  8
0
  6
CONTINUOUS
 62
    7
370
   15
100
AcDbLine
 10
31.9616532285
 20
297.2497642427
 11
22.8905862529
 21
297.1076369672
  0
LINE
  5
F8
100
AcDbEntity
  8
0
  6
CONTINUOUS
 62
    7
370
   15
100
AcDbLine
 10
34.9616593082
 20
294.2497730642
 11
31.9616532285
 21
297.2497642427
  0
LINE
  5
F9
100
AcDbEntity
  8
0
  6
CONTINUOUS
 62
    7
370
   15
100
AcDbLine
 10
34.9616593082
 20
294.2497730642
 11
37.9616579372
 21
297.2497642427
  0
LINE
  5
FA
100
AcDbEntity
  8
0
  6
CONTINUOUS
 62
    7
370
   15
100
AcDbLine
 10
37.9616579372
 20
297.2497642427
 11
41.8611502606
 21
297.2497642427
  0
LINE
  5
FB
100
AcDbEntity
  8
0
  6
CONTINUOUS
 62
    7
370
   15
100
AcDbLine
 10
44.8611488897
 20
294.2497730642
 11
41.8611502606
 21
297.2497642427
  0
LINE
  5
FC
100
AcDbEntity
  8
0
  6
CONTINUOUS
 62
    7
370
   15
100
AcDbLine
 10
44.8611488897
 20
294.2497730642
 11
47.8611512441
 21
297.2497642427
  0
LINE
  5
FD
100
AcDbEntity
  8
0
  6
CONTINUOUS
 62
    7
370
   15
100
AcDbLine
 10
47.8611512441
 20
297.2497642427
 11
206.9200238545
 21
297.1076369672
  0
LINE
  5
FE
100
AcDbEntity
  8
0
  6
CONTINUOUS
 62
    7
370
   15
100
AcDbLine
 10
209.9200224835
 20
294.1076457887
 11
206.9200238545
 21
297.1076369672
  0
LINE
  5
FF
100
AcDbEntity
  8
0
  6
CONTINUOUS
 62
    7
370
   15
100
AcDbLine
 10
209.9200224835
 20
294.1076457887
 11
212.9200285632
 21
297.1076369672
  0
LINE
  5
100
100
AcDbEntity
  8
0
  6
CONTINUOUS
 62
    7
370
   15
100
AcDbLine
 10
216.8195208866
 20
297.1076369672
 11
212.9200285632
 21
297.1076369672
  0
LINE
  5
101
100
AcDbEntity
  8
0
  6
CONTINUOUS
 62
    7
370
   15
100
AcDbLine
 10
220.0695237476
 20
293.8576341062
 11
216.8195208866
 21
297.1076369672
  0
LINE
  5
102
100
AcDbEntity
  8
0
  6
CONTINUOUS
 62
    7
370
   15
100
AcDbLine
 10
220.0695237476
 20
293.8576341062
 11
223.3195191581
 21
297.1076369672
  0
LINE
  5
103
100
AcDbEntity
  8
0
  6
CONTINUOUS
 62
    7
370
   15
100
AcDbLine
 10
232.3905861337
 20
297.1076369672
 11
223.3195191581
 21
297.1076369672
  0
ARC
  5
104
100
AcDbEntity
  8
0
  6
CONTINUOUS
 62
    7
370
   15
100
AcDbCircle
 10
232.3905882353
 20
292.1076377217
 40
5
100
AcDbArc
 50
0
 51
90
  0
LINE
  5
105
100
AcDbEntity
  8
0
  6
CONTINUOUS
 62
    7
370
   15
100
AcDbLine
 10
237.5327309925
 20
283.03657476
 11
237.3905888159
 21
292.1076417356
  0
ARC
  5
106
100
AcDbEntity
  8
0
  6
CONTINUOUS
 62
    7
370
   15
100
AcDbCircle
 10
121.5604612164
 20
187.5095615104
 40
25.00000000000003
100
AcDbArc
 50
28.2955399999
 51
84.26673903770001
  0
ARC
  5
107
100
AcDbEntity
  8
0
  6
CONTINUOUS
 62
    7
370
   15
100
AcDbCircle
 10
127.3905882353
 20
187.6076377217
 40
20.00000000000001
100
AcDbArc
 50
318.5294702679
 51
35.9883524515
  0
ARC
  5
108
100
AcDbEntity
  8
0
  6
CONTINUOUS
 62
    7
370
   15
100
AcDbCircle
 10
128.7207152542
 20
195.3037901444
 40
24.99999999999999
100
AcDbArc
 50
303.1088994749
 51
341.207740301
  0
LINE
  5
109
100
AcDbEntity
  8
0
  6
CONTINUOUS
 62
    7
370
   15
100
AcDbLine
 10
14.3134257156
 20
206.1431706338
 11
24.3134236295
 21
216.1431759982
  0
ARC
  5
10A
100
AcDbEntity
  8
0
  6
CONTINUOUS
 62
    7
370
   15
100
AcDbCircle
 10
17.848957675
 20
202.6076377217
 40
5.000000000000004
100
AcDbArc
 50
135
 51
180
  0
LINE
  5
10B
100
AcDbEntity
  8
0
  6
CONTINUOUS
 62
    7
370
   15
100
AcDbLine
 10
12.8489544947
 20
172.6076305299
 11
12.8489544947
 21
202.607631722
  0
ARC
  5
10C
100
AcDbEntity
  8
0
  6
CONTINUOUS
 62
    7
370
   15
100
AcDbCircle
 10
17.848957675
 20
172.6076377217
 40
5.000000000000011
100
AcDbArc
 50
180
 51
225
  0
LINE
  5
10D
100
AcDbEntity
  8
0
  6
CONTINUOUS
 62
    7
370
   15
100
AcDbLine
 10
14.3134257156
 20
169.0721065192
 11
24.3134236295
 21
159.0721011548
  0
LINE
  5
10E
100
AcDbEntity
  8
0
  6
CONTINUOUS
 62
    7
370
   15
100
AcDbLine
 10
219.8195195157
 20
287.036567965
 11
214.8697709996
 21
291.9863164811
  0
LINE
  5
10F
100
AcDbEntity
  8
0
  6
CONTINUOUS
 62
    7
370
   15
100
AcDbLine
 10
32.8489577729
 20
162.6076400666
 11
32.8489577729
 21
212.6076370864
  0
LINE
  5
110
100
AcDbEntity
  8
0
  6
CONTINUOUS
 62
    7
370
   15
100
AcDbLine
 10
224.8905858357
 20
292.1076417356
 11
224.8905858357
 21
285.1076424508
  0
LINE
  5
111
100
AcDbEntity
  8
0
  6
CONTINUOUS
 62
    7
370
   15
100
AcDbLine
 10
224.0621632297
 20
80.9655003636
 11
226.8905898888
 21
80.9655003636
  0
ARC
  5
112
100
AcDbEntity
  8
0
  6
CONTINUOUS
 62
    7
370
   15
100
AcDbCircle
 10
12.8905882353
 20
246.2076377217
 40
5.000000000000005
100
AcDbArc
 50
270
 51
0
  0
LINE
  5
113
100
AcDbEntity
  8
0
  6
CONTINUOUS
 62
    7
370
   15
100
AcDbLine
 10
237.5609537918
 20
121.5306595354
 11
253.2202115614
 21
179.9717992931
  0
ARC
  5
114
100
AcDbEntity
  8
0
  6
CONTINUOUS
 62
    7
370
   15
100
AcDbCircle
 10
27.848957675
 20
162.6076377217
 40
5.000000000000007
100
AcDbArc
 50
225
 51
0
  0
ARC
  5
115
100
AcDbEntity
  8
0
  6
CONTINUOUS
 62
    7
370
   15
100
AcDbCircle
 10
355.5578981344865
 20
258.9993518837852
 40
5.00000000000004
100
AcDbArc
 50
350.2898141407
 51
24.7350299197
  0
LINE
  5
116
100
AcDbEntity
  8
0
  6
CONTINUOUS
 62
    7
370
   15
100
AcDbLine
 10
352.3685357308865
 20
210.7161270773852
 11
360.4862711167866
 21
258.1560300981852
  0
ARC
  5
117
100
AcDbEntity
  8
0
  6
CONTINUOUS
 62
    7
370
   15
100
AcDbCircle
 10
342.9940628974866
 20
212.3202551050852
 40
9.510727700649072
100
AcDbArc
 50
258.2410873091
 51
350.2898141407
  0
LINE
  5
118
100
AcDbEntity
  8
0
  6
CONTINUOUS
 62
    7
370
   15
100
AcDbLine
 10
341.0558274722866
 20
203.0091272985852
 11
346.4387378430865
 21
209.4243156111852
  0
ARC
  5
119
100
AcDbEntity
  8
0
  6
CONTINUOUS
 62
    7
370
   15
100
AcDbCircle
 10
342.9930685068866
 20
212.3185246982852
 40
4.499902496357579
100
AcDbArc
 50
319.9712738787
 51
139.9712738787
  0
LINE
  5
11A
100
AcDbEntity
  8
0
  6
CONTINUOUS
 62
    7
370
   15
100
AcDbLine
 10
339.5473978257865
 20
215.2127312815853
 11
333.5437199807865
 21
208.0587731993853
  0
LINE
  5
11B
100
AcDbEntity
  8
0
  6
CONTINUOUS
 62
    7
370
   15
100
AcDbLine
 10
333.5437199807865
 20
208.0587731993853
 11
328.6868802047865
 21
212.0783465301852
  0
ELLIPSE
  5
11C
100
AcDbEntity
  8
0
  6
CONTINUOUS
 62
    7
370
   15
100
AcDbEllipse
 10
314.3212903314865
 20
223.9674855639852
 30
0
 11
12.2218539221322
 21
14.76760457646668
 31
0
 40
0.9727769407
 41
4.712388980384717
 42
7.853981633976432
  0
LINE
  5
11D
100
AcDbEntity
  8
0
  6
CONTINUOUS
 62
    7
370
   15
100
AcDbLine
 10
299.9556979871865
 20
235.8566211855853
 11
295.0988731122865
 21
239.8762094175852
  0
LINE
  5
11E
100
AcDbEntity
  8
0
  6
CONTINUOUS
 62
    7
370
   15
100
AcDbLine
 10
295.0988731122865
 20
239.8762094175852
 11
301.2343964315865
 21
247.2719090378852
  0
ARC
  5
11F
100
AcDbEntity
  8
0
  6
CONTINUOUS
 62
    7
370
   15
100
AcDbCircle
 10
297.8239423868865
 20
250.1336968866852
 40
4.452075615194972
100
AcDbArc
 50
319.9992722191
 51
139.9992722191
  0
LINE
  5
120
100
AcDbEntity
  8
0
  6
CONTINUOUS
 62
    7
370
   15
100
AcDbLine
 10
288.1955972648865
 20
245.6685887968852
 11
294.4134942031865
 21
252.9954748547853
  0
ARC
  5
121
100
AcDbEntity
  8
0
  6
CONTINUOUS
 62
    7
370
   15
100
AcDbCircle
 10
297.8236127892865
 20
250.1333040975853
 40
10.61283928272567
100
AcDbArc
 50
148.6143720908
 51
204.8781176941
  0
LINE
  5
122
100
AcDbEntity
  8
0
  6
CONTINUOUS
 62
    7
370
   15
100
AcDbLine
 10
307.0521226859866
 20
279.6847509539852
 11
288.7636295295865
 21
255.6604283249853
  0
ARC
  5
123
100
AcDbEntity
  8
0
  6
CONTINUOUS
 62
    7
370
   15
100
AcDbCircle
 10
311.0305439557865
 20
276.6561907350852
 40
5.00000000000004
100
AcDbArc
 50
114.7350299197
 51
142.7198315306
  0
LINE
  5
124
100
AcDbEntity
  8
0
  6
CONTINUOUS
 62
    7
370
   15
100
AcDbLine
 10
308.9384308791866
 20
281.1974572336853
 11
340.6339755988865
 21
295.7992540991852
  0
ARC
  5
125
100
AcDbEntity
  8
0
  6
CONTINUOUS
 62
    7
370
   15
100
AcDbCircle
 10
340.5435453530865
 20
289.6953050205853
 40
6.104623512790739
100
AcDbArc
 50
43.1226184226
 51
89.1512318364
  0
LINE
  5
126
100
AcDbEntity
  8
0
  6
CONTINUOUS
 62
    7
370
   15
100
AcDbLine
 10
344.9992707706865
 20
293.8681828176853
 11
360.0991538501866
 21
261.0914694464853
  0
LINE
  5
127
100
AcDbEntity
  8
0
  6
CONTINUOUS
 62
    7
370
   15
100
AcDbLine
 10
345.0543156600865
 20
264.3792318499853
 11
343.5914239621865
 21
260.6563406383853
  0
ARC
  5
128
100
AcDbEntity
  8
0
  6
CONTINUOUS
 62
    7
370
   15
100
AcDbCircle
 10
333.1410604671866
 20
269.0605049517853
 40
12.8
100
AcDbArc
 50
338.5478234949
 51
158.5478234949
  0
LINE
  5
129
100
AcDbEntity
  8
0
  6
CONTINUOUS
 62
    7
370
   15
100
AcDbLine
 10
321.2278059459865
 20
273.7417804396852
 11
319.7648993468865
 21
270.0188892281853
  0
ARC
  5
12A
100
AcDbEntity
  8
0
  6
CONTINUOUS
 62
    7
370
   15
100
AcDbCircle
 10
331.6781624648865
 20
265.3376123351853
 40
12.80000000000002
100
AcDbArc
 50
158.5478234949
 51
338.5478234949
  0
ARC
  5
12B
100
AcDbEntity
  8
0
  6
CONTINUOUS
 62
    7
370
   15
100
AcDbCircle
 10
340.5435453530865
 20
289.6953050205853
 40
1.599999301376857
100
AcDbArc
 50
339.9242740472
 51
160.0012342853
  0
LINE
  5
12C
100
AcDbEntity
  8
0
  6
CONTINUOUS
 62
    7
370
   15
100
AcDbLine
 10
339.0400281882865
 20
290.2424918806852
 11
337.6720270848866
 21
286.4837037718852
  0
ARC
  5
12D
100
AcDbEntity
  8
0
  6
CONTINUOUS
 62
    7
370
   15
100
AcDbCircle
 10
339.1755464093865
 20
285.9365048276853
 40
1.600000000000001
100
AcDbArc
 50
160.0012342853
 51
335.2268739195
  0
LINE
  5
12E
100
AcDbEntity
  8
0
  6
CONTINUOUS
 62
    7
370
   15
100
AcDbLine
 10
342.0463225579865
 20
289.1460942423852
 11
340.6282982564865
 21
285.2660702860853
  0
LINE
  5
12F
100
AcDbEntity
  8
0
  6
CONTINUOUS
 62
    7
370
   15
100
AcDbLine
 10
327.0523718333865
 20
247.9502545988852
 11
325.6842813230865
 21
244.1914813911853
  0
ARC
  5
130
100
AcDbEntity
  8
0
  6
CONTINUOUS
 62
    7
370
   15
100
AcDbCircle
 10
325.5488593660866
 20
248.4974902265853
 40
1.600000000000058
100
AcDbArc
 50
340
 51
159.9999998267
  0
LINE
  5
131
100
AcDbEntity
  8
0
  6
CONTINUOUS
 62
    7
370
   15
100
AcDbLine
 10
324.0453473067866
 20
249.0447150862853
 11
322.6772716975865
 21
245.2859567797852
  0
ARC
  5
132
100
AcDbEntity
  8
0
  6
CONTINUOUS
 62
    7
370
   15
100
AcDbCircle
 10
324.1807787813866
 20
244.7387197475853
 40
1.600000000000077
100
AcDbArc
 50
159.9999998267
 51
339.9999998267
  0
ARC
  5
133
100
AcDbEntity
  8
0
  6
CONTINUOUS
 62
    7
370
   15
100
AcDbCircle
 10
271.7588091683864
 20
189.9887274791853
 40
4.999999999999999
100
AcDbArc
 50
200.2898141407
 51
234.7350299197
  0
LINE
  5
134
100
AcDbEntity
  8
0
  6
CONTINUOUS
 62
    7
370
   15
100
AcDbLine
 10
250.3792664743865
 20
233.3978997862852
 11
267.0690587497865
 21
188.2548766529852
  0
ARC
  5
135
100
AcDbEntity
  8
0
  6
CONTINUOUS
 62
    7
370
   15
100
AcDbCircle
 10
259.2998612632866
 20
236.6959287337853
 40
9.510727700649083
100
AcDbArc
 50
108.2410873091
 51
200.2898141407
  0
LINE
  5
136
100
AcDbEntity
  8
0
  6
CONTINUOUS
 62
    7
370
   15
100
AcDbLine
 10
256.3228479362866
 20
245.7287149822852
 11
254.8687181211865
 21
237.4815481102852
  0
ARC
  5
137
100
AcDbEntity
  8
0
  6
CONTINUOUS
 62
    7
370
   15
100
AcDbCircle
 10
259.2998572273866
 20
236.6979245052852
 40
4.499902496357643
100
AcDbArc
 50
169.9712738787
 51
349.9712738787
  0
LINE
  5
138
100
AcDbEntity
  8
0
  6
CONTINUOUS
 62
    7
370
   15
100
AcDbLine
 10
263.7310049272865
 20
235.9143035805852
 11
265.3533539510865
 21
245.1116578972853
  0
LINE
  5
139
100
AcDbEntity
  8
0
  6
CONTINUOUS
 62
    7
370
   15
100
AcDbLine
 10
265.3533539510865
 20
245.1116578972853
 11
271.5692988372866
 21
244.0590249693852
  0
ELLIPSE
  5
13A
100
AcDbEntity
  8
0
  6
CONTINUOUS
 62
    7
370
   15
100
AcDbEllipse
 10
289.9548259317865
 20
240.9455175555852
 30
0
 11
-3.200633689675499
 21
-18.90004767732961
 31
0
 40
0.9727769407
 41
4.712388980384716
 42
7.853981633976437
  0
LINE
  5
13B
100
AcDbEntity
  8
0
  6
CONTINUOUS
 62
    7
370
   15
100
AcDbLine
 10
308.3403578734865
 20
237.8320085203853
 11
314.5562878585865
 21
236.7793755924852
  0
LINE
  5
13C
100
AcDbEntity
  8
0
  6
CONTINUOUS
 62
    7
370
   15
100
AcDbLine
 10
314.5562878585865
 20
236.7793755924852
 11
312.9406294560865
 21
227.3067372238852
  0
ARC
  5
13D
100
AcDbEntity
  8
0
  6
CONTINUOUS
 62
    7
370
   15
100
AcDbCircle
 10
317.3250540082865
 20
226.5335878016853
 40
4.452075615194948
100
AcDbArc
 50
169.9992722191
 51
349.9992722191
  0
LINE
  5
13E
100
AcDbEntity
  8
0
  6
CONTINUOUS
 62
    7
370
   15
100
AcDbLine
 10
323.4308979249865
 20
235.2146493589852
 11
321.7094859815865
 21
225.7604437267852
  0
ARC
  5
13F
100
AcDbEntity
  8
0
  6
CONTINUOUS
 62
    7
370
   15
100
AcDbCircle
 10
317.3251430535865
 20
226.5340927657853
 40
10.61283928272561
100
AcDbArc
 50
358.6143720908
 51
54.8781176941
  0
LINE
  5
140
100
AcDbEntity
  8
0
  6
CONTINUOUS
 62
    7
370
   15
100
AcDbLine
 10
324.1087368465865
 20
196.3275211250852
 11
327.9348782039864
 21
226.2774544155853
  0
ARC
  5
141
100
AcDbEntity
  8
0
  6
CONTINUOUS
 62
    7
370
   15
100
AcDbCircle
 10
319.1490484760865
 20
196.9611335728852
 40
5.000000000000084
100
AcDbArc
 50
324.7350299197
 51
352.7198315306
  0
LINE
  5
142
100
AcDbEntity
  8
0
  6
CONTINUOUS
 62
    7
370
   15
100
AcDbLine
 10
323.2315054870865
 20
194.0743463432852
 11
303.0832580066865
 21
165.5810313618852
  0
LINE
  5
143
100
AcDbEntity
  8
0
  6
CONTINUOUS
 62
    7
370
   15
100
AcDbLine
 10
298.3372679687865
 20
165.0707410967852
 11
268.8720098472865
 21
185.9062748348852
  0
LINE
  5
144
100
AcDbEntity
  8
0
  6
CONTINUOUS
 62
    7
370
   15
100
AcDbLine
 10
283.5451236701865
 20
190.5814098513852
 11
282.9505822396865
 21
194.5369677937853
  0
ARC
  5
145
100
AcDbEntity
  8
0
  6
CONTINUOUS
 62
    7
370
   15
100
AcDbCircle
 10
296.2029365946866
 20
192.4839321645852
 40
12.80000000000001
100
AcDbArc
 50
188.5478234949
 51
8.547823494899999
  0
LINE
  5
146
100
AcDbEntity
  8
0
  6
CONTINUOUS
 62
    7
370
   15
100
AcDbLine
 10
308.8607511258865
 20
194.3864511644853
 11
308.2662096953865
 21
198.3420240080852
  0
ARC
  5
147
100
AcDbEntity
  8
0
  6
CONTINUOUS
 62
    7
370
   15
100
AcDbCircle
 10
295.6083971195865
 20
196.4395007472853
 40
12.80000000000006
100
AcDbArc
 50
8.547823494899999
 51
188.5478234949
  0
ARC
  5
148
100
AcDbEntity
  8
0
  6
CONTINUOUS
 62
    7
370
   15
100
AcDbCircle
 10
300.1095966667864
 20
170.9124286600853
 40
1.599999301376837
100
AcDbArc
 50
189.9242740472
 51
10.0012342853
  0
LINE
  5
149
100
AcDbEntity
  8
0
  6
CONTINUOUS
 62
    7
370
   15
100
AcDbLine
 10
301.6852757669865
 20
171.1903052723852
 11
300.9905985332866
 21
175.1295166408852
  0
ARC
  5
14A
100
AcDbEntity
  8
0
  6
CONTINUOUS
 62
    7
370
   15
100
AcDbCircle
 10
299.4149184080865
 20
174.8516445866852
 40
1.599999999999989
100
AcDbArc
 50
10.0012342853
 51
185.2268739195
  0
LINE
  5
14B
100
AcDbEntity
  8
0
  6
CONTINUOUS
 62
    7
370
   15
100
AcDbLine
 10
298.5335460639865
 20
170.6366675293852
 11
297.8215685821864
 21
174.7058915293852
  0
LINE
  5
14C
100
AcDbEntity
  8
0
  6
CONTINUOUS
 62
    7
370
   15
100
AcDbLine
 10
290.9207812285865
 20
213.8102935945853
 11
290.2261785007865
 21
217.7495198643853
  0
ARC
  5
14D
100
AcDbEntity
  8
0
  6
CONTINUOUS
 62
    7
370
   15
100
AcDbCircle
 10
292.4964682563865
 20
214.0881258454853
 40
1.600000000000071
100
AcDbArc
 50
190
 51
9.9999998267
  0
LINE
  5
14E
100
AcDbEntity
  8
0
  6
CONTINUOUS
 62
    7
370
   15
100
AcDbLine
 10
294.0721533036865
 20
214.3659578955853
 11
293.3775654769865
 21
218.3051990663852
  0
ARC
  5
14F
100
AcDbEntity
  8
0
  6
CONTINUOUS
 62
    7
370
   15
100
AcDbCircle
 10
291.8018755576865
 20
218.0273568596853
 40
1.600000000000076
100
AcDbArc
 50
9.9999998267
 51
189.9999998267
  0
ARC
  5
150
100
AcDbEntity
  8
0
  6
CONTINUOUS
 62
    7
370
   15
100
AcDbCircle
 10
300.1095966667864
 20
170.9124286600853
 40
6.104623512790742
100
AcDbArc
 50
253.1226184226
 51
299.1512318365
  0
ARC
  5
151
100
AcDbEntity
  8
0
  6
CONTINUOUS
 62
    7
370
   15
100
AcDbCircle
 10
376.8500329659477
 20
166.5914867152435
 40
5.00000000000004
100
AcDbArc
 50
350.2898141407
 51
24.7350299197
  0
LINE
  5
152
100
AcDbEntity
  8
0
  6
CONTINUOUS
 62
    7
370
   15
100
AcDbLine
 10
373.6606705623478
 20
118.3082619088436
 11
381.7784059482478
 21
165.7481649296436
  0
ARC
  5
153
100
AcDbEntity
  8
0
  6
CONTINUOUS
 62
    7
370
   15
100
AcDbCircle
 10
364.2861977289478
 20
119.9123899365436
 40
9.510727700649072
100
AcDbArc
 50
258.2410873091
 51
350.2898141407
  0
LINE
  5
154
100
AcDbEntity
  8
0
  6
CONTINUOUS
 62
    7
370
   15
100
AcDbLine
 10
362.3479623037478
 20
110.6012621300436
 11
367.7308726745477
 21
117.0164504426436
  0
ARC
  5
155
100
AcDbEntity
  8
0
  6
CONTINUOUS
 62
    7
370
   15
100
AcDbCircle
 10
364.2852033383478
 20
119.9106595297436
 40
4.499902496357579
100
AcDbArc
 50
319.9712738787
 51
139.9712738787
  0
LINE
  5
156
100
AcDbEntity
  8
0
  6
CONTINUOUS
 62
    7
370
   15
100
AcDbLine
 10
360.8395326572477
 20
122.8048661130436
 11
354.8358548122478
 21
115.6509080308436
  0
LINE
  5
157
100
AcDbEntity
  8
0
  6
CONTINUOUS
 62
    7
370
   15
100
AcDbLine
 10
354.8358548122478
 20
115.6509080308436
 11
349.9790150362477
 21
119.6704813616436
  0
ELLIPSE
  5
158
100
AcDbEntity
  8
0
  6
CONTINUOUS
 62
    7
370
   15
100
AcDbEllipse
 10
335.6134251629477
 20
131.5596203954436
 30
0
 11
12.2218539221322
 21
14.76760457646668
 31
0
 40
0.9727769407
 41
4.712388980384717
 42
7.853981633976432
  0
LINE
  5
159
100
AcDbEntity
  8
0
  6
CONTINUOUS
 62
    7
370
   15
100
AcDbLine
 10
321.2478328186477
 20
143.4487560170436
 11
316.3910079437478
 21
147.4683442490436
  0
LINE
  5
15A
100
AcDbEntity
  8
0
  6
CONTINUOUS
 62
    7
370
   15
100
AcDbLine
 10
316.3910079437478
 20
147.4683442490436
 11
322.5265312630477
 21
154.8640438693436
  0
ARC
  5
15B
100
AcDbEntity
  8
0
  6
CONTINUOUS
 62
    7
370
   15
100
AcDbCircle
 10
319.1160772183477
 20
157.7258317181436
 40
4.452075615194972
100
AcDbArc
 50
319.9992722191
 51
139.9992722191
  0
LINE
  5
15C
100
AcDbEntity
  8
0
  6
CONTINUOUS
 62
    7
370
   15
100
AcDbLine
 10
309.4877320963478
 20
153.2607236283436
 11
315.7056290346478
 21
160.5876096862436
  0
ARC
  5
15D
100
AcDbEntity
  8
0
  6
CONTINUOUS
 62
    7
370
   15
100
AcDbCircle
 10
319.1157476207478
 20
157.7254389290436
 40
10.61283928272567
100
AcDbArc
 50
148.6143720908
 51
204.8781176941
  0
LINE
  5
15E
100
AcDbEntity
  8
0
  6
CONTINUOUS
 62
    7
370
   15
100
AcDbLine
 10
328.3442575174478
 20
187.2768857854435
 11
310.0557643610477
 21
163.2525631564436
  0
ARC
  5
15F
100
AcDbEntity
  8
0
  6
CONTINUOUS
 62
    7
370
   15
100
AcDbCircle
 10
332.3226787872478
 20
184.2483255665435
 40
5.00000000000004
100
AcDbArc
 50
114.7350299197
 51
142.7198315306
  0
LINE
  5
160
100
AcDbEntity
  8
0
  6
CONTINUOUS
 62
    7
370
   15
100
AcDbLine
 10
330.2305657106478
 20
188.7895920651436
 11
361.9261104303477
 21
203.3913889306436
  0
ARC
  5
161
100
AcDbEntity
  8
0
  6
CONTINUOUS
 62
    7
370
   15
100
AcDbCircle
 10
361.8356801845477
 20
197.2874398520436
 40
6.104623512790739
100
AcDbArc
 50
43.1226184226
 51
89.1512318364
  0
LINE
  5
162
100
AcDbEntity
  8
0
  6
CONTINUOUS
 62
    7
370
   15
100
AcDbLine
 10
366.2914056021477
 20
201.4603176491436
 11
381.3912886816478
 21
168.6836042779436
  0
LINE
  5
163
100
AcDbEntity
  8
0
  6
CONTINUOUS
 62
    7
370
   15
100
AcDbLine
 10
366.3464504915477
 20
171.9713666814436
 11
364.8835587936478
 21
168.2484754698436
  0
ARC
  5
164
100
AcDbEntity
  8
0
  6
CONTINUOUS
 62
    7
370
   15
100
AcDbCircle
 10
354.4331952986478
 20
176.6526397832436
 40
12.8
100
AcDbArc
 50
338.5478234949
 51
158.5478234949
  0
LINE
  5
165
100
AcDbEntity
  8
0
  6
CONTINUOUS
 62
    7
370
   15
100
AcDbLine
 10
342.5199407774477
 20
181.3339152711436
 11
341.0570341783477
 21
177.6110240596436
  0
ARC
  5
166
100
AcDbEntity
  8
0
  6
CONTINUOUS
 62
    7
370
   15
100
AcDbCircle
 10
352.9702972963477
 20
172.9297471666436
 40
12.80000000000002
100
AcDbArc
 50
158.5478234949
 51
338.5478234949
  0
ARC
  5
167
100
AcDbEntity
  8
0
  6
CONTINUOUS
 62
    7
370
   15
100
AcDbCircle
 10
361.8356801845477
 20
197.2874398520436
 40
1.599999301376857
100
AcDbArc
 50
339.9242740472
 51
160.0012342853
  0
LINE
  5
168
100
AcDbEntity
  8
0
  6
CONTINUOUS
 62
    7
370
   15
100
AcDbLine
 10
360.3321630197477
 20
197.8346267121436
 11
358.9641619163478
 21
194.0758386033436
  0
ARC
  5
169
100
AcDbEntity
  8
0
  6
CONTINUOUS
 62
    7
370
   15
100
AcDbCircle
 10
360.4676812408478
 20
193.5286396591436
 40
1.600000000000001
100
AcDbArc
 50
160.0012342853
 51
335.2268739195
  0
LINE
  5
16A
100
AcDbEntity
  8
0
  6
CONTINUOUS
 62
    7
370
   15
100
AcDbLine
 10
363.3384573894477
 20
196.7382290738436
 11
361.9204330879477
 21
192.8582051175436
  0
LINE
  5
16B
100
AcDbEntity
  8
0
  6
CONTINUOUS
 62
    7
370
   15
100
AcDbLine
 10
348.3445066648478
 20
155.5423894303436
 11
346.9764161545477
 21
151.7836162226436
  0
ARC
  5
16C
100
AcDbEntity
  8
0
  6
CONTINUOUS
 62
    7
370
   15
100
AcDbCircle
 10
346.8409941975478
 20
156.0896250580436
 40
1.600000000000058
100
AcDbArc
 50
340
 51
159.9999998267
  0
LINE
  5
16D
100
AcDbEntity
  8
0
  6
CONTINUOUS
 62
    7
370
   15
100
AcDbLine
 10
345.3374821382478
 20
156.6368499177436
 11
343.9694065290477
 21
152.8780916112436
  0
ARC
  5
16E
100
AcDbEntity
  8
0
  6
CONTINUOUS
 62
    7
370
   15
100
AcDbCircle
 10
345.4729136128478
 20
152.3308545790436
 40
1.600000000000077
100
AcDbArc
 50
159.9999998267
 51
339.9999998267
  0
ARC
  5
16F
100
AcDbEntity
  8
0
  6
CONTINUOUS
 62
    7
370
   15
100
AcDbCircle
 10
293.0509439998477
 20
97.58086231064361
 40
4.999999999999999
100
AcDbArc
 50
200.2898141407
 51
234.7350299197
  0
LINE
  5
170
100
AcDbEntity
  8
0
  6
CONTINUOUS
 62
    7
370
   15
100
AcDbLine
 10
271.6714013058477
 20
140.9900346177436
 11
288.3611935812477
 21
95.8470114844436
  0
ARC
  5
171
100
AcDbEntity
  8
0
  6
CONTINUOUS
 62
    7
370
   15
100
AcDbCircle
 10
280.5919960947478
 20
144.2880635652436
 40
9.510727700649083
100
AcDbArc
 50
108.2410873091
 51
200.2898141407
  0
LINE
  5
172
100
AcDbEntity
  8
0
  6
CONTINUOUS
 62
    7
370
   15
100
AcDbLine
 10
277.6149827677478
 20
153.3208498137436
 11
276.1608529526478
 21
145.0736829417436
  0
ARC
  5
173
100
AcDbEntity
  8
0
  6
CONTINUOUS
 62
    7
370
   15
100
AcDbCircle
 10
280.5919920588478
 20
144.2900593367436
 40
4.499902496357643
100
AcDbArc
 50
169.9712738787
 51
349.9712738787
  0
LINE
  5
174
100
AcDbEntity
  8
0
  6
CONTINUOUS
 62
    7
370
   15
100
AcDbLine
 10
285.0231397587477
 20
143.5064384120436
 11
286.6454887825477
 21
152.7037927287436
  0
LINE
  5
175
100
AcDbEntity
  8
0
  6
CONTINUOUS
 62
    7
370
   15
100
AcDbLine
 10
286.6454887825477
 20
152.7037927287436
 11
292.8614336687478
 21
151.6511598008436
  0
ELLIPSE
  5
176
100
AcDbEntity
  8
0
  6
CONTINUOUS
 62
    7
370
   15
100
AcDbEllipse
 10
311.2469607632477
 20
148.5376523870436
 30
0
 11
-3.200633689675499
 21
-18.90004767732961
 31
0
 40
0.9727769407
 41
4.712388980384716
 42
7.853981633976437
  0
LINE
  5
177
100
AcDbEntity
  8
0
  6
CONTINUOUS
 62
    7
370
   15
100
AcDbLine
 10
329.6324927049478
 20
145.4241433518436
 11
335.8484226900477
 21
144.3715104239436
  0
LINE
  5
178
100
AcDbEntity
  8
0
  6
CONTINUOUS
 62
    7
370
   15
100
AcDbLine
 10
335.8484226900477
 20
144.3715104239436
 11
334.2327642875477
 21
134.8988720553436
  0
ARC
  5
179
100
AcDbEntity
  8
0
  6
CONTINUOUS
 62
    7
370
   15
100
AcDbCircle
 10
338.6171888397477
 20
134.1257226331436
 40
4.452075615194948
100
AcDbArc
 50
169.9992722191
 51
349.9992722191
  0
LINE
  5
17A
100
AcDbEntity
  8
0
  6
CONTINUOUS
 62
    7
370
   15
100
AcDbLine
 10
344.7230327564477
 20
142.8067841904436
 11
343.0016208130477
 21
133.3525785582436
  0
ARC
  5
17B
100
AcDbEntity
  8
0
  6
CONTINUOUS
 62
    7
370
   15
100
AcDbCircle
 10
338.6172778850477
 20
134.1262275972436
 40
10.61283928272561
100
AcDbArc
 50
358.6143720908
 51
54.8781176941
  0
LINE
  5
17C
100
AcDbEntity
  8
0
  6
CONTINUOUS
 62
    7
370
   15
100
AcDbLine
 10
345.4008716780477
 20
103.9196559565436
 11
349.2270130354477
 21
133.8695892470436
  0
ARC
  5
17D
100
AcDbEntity
  8
0
  6
CONTINUOUS
 62
    7
370
   15
100
AcDbCircle
 10
340.4411833075478
 20
104.5532684043436
 40
5.000000000000084
100
AcDbArc
 50
324.7350299197
 51
352.7198315306
  0
LINE
  5
17E
100
AcDbEntity
  8
0
  6
CONTINUOUS
 62
    7
370
   15
100
AcDbLine
 10
344.5236403185477
 20
101.6664811747436
 11
324.3753928381478
 21
73.17316619334359
  0
LINE
  5
17F
100
AcDbEntity
  8
0
  6
CONTINUOUS
 62
    7
370
   15
100
AcDbLine
 10
319.6294028002478
 20
72.66287592824359
 11
290.1641446787477
 21
93.49840966634359
  0
LINE
  5
180
100
AcDbEntity
  8
0
  6
CONTINUOUS
 62
    7
370
   15
100
AcDbLine
 10
304.8372585016477
 20
98.1735446828436
 11
304.2427170711478
 21
102.1291026252436
  0
ARC
  5
181
100
AcDbEntity
  8
0
  6
CONTINUOUS
 62
    7
370
   15
100
AcDbCircle
 10
317.4950714261478
 20
100.0760669960436
 40
12.80000000000001
100
AcDbArc
 50
188.5478234949
 51
8.547823494899999
  0
LINE
  5
182
100
AcDbEntity
  8
0
  6
CONTINUOUS
 62
    7
370
   15
100
AcDbLine
 10
330.1528859573477
 20
101.9785859959436
 11
329.5583445268477
 21
105.9341588395436
  0
ARC
  5
183
100
AcDbEntity
  8
0
  6
CONTINUOUS
 62
    7
370
   15
100
AcDbCircle
 10
316.9005319510478
 20
104.0316355787436
 40
12.80000000000006
100
AcDbArc
 50
8.547823494899999
 51
188.5478234949
  0
ARC
  5
184
100
AcDbEntity
  8
0
  6
CONTINUOUS
 62
    7
370
   15
100
AcDbCircle
 10
321.4017314982477
 20
78.50456349154361
 40
1.599999301376837
100
AcDbArc
 50
189.9242740472
 51
10.0012342853
  0
LINE
  5
185
100
AcDbEntity
  8
0
  6
CONTINUOUS
 62
    7
370
   15
100
AcDbLine
 10
322.9774105984478
 20
78.7824401038436
 11
322.2827333647478
 21
82.72165147234359
  0
ARC
  5
186
100
AcDbEntity
  8
0
  6
CONTINUOUS
 62
    7
370
   15
100
AcDbCircle
 10
320.7070532395477
 20
82.44377941814359
 40
1.599999999999989
100
AcDbArc
 50
10.0012342853
 51
185.2268739195
  0
LINE
  5
187
100
AcDbEntity
  8
0
  6
CONTINUOUS
 62
    7
370
   15
100
AcDbLine
 10
319.8256808954478
 20
78.2288023608436
 11
319.1137034136477
 21
82.29802636084359
  0
LINE
  5
188
100
AcDbEntity
  8
0
  6
CONTINUOUS
 62
    7
370
   15
100
AcDbLine
 10
312.2129160600477
 20
121.4024284260436
 11
311.5183133322477
 21
125.3416546958436
  0
ARC
  5
189
100
AcDbEntity
  8
0
  6
CONTINUOUS
 62
    7
370
   15
100
AcDbCircle
 10
313.7886030878478
 20
121.6802606769436
 40
1.600000000000071
100
AcDbArc
 50
190
 51
9.9999998267
  0
LINE
  5
18A
100
AcDbEntity
  8
0
  6
CONTINUOUS
 62
    7
370
   15
100
AcDbLine
 10
315.3642881351478
 20
121.9580927270436
 11
314.6697003084477
 21
125.8973338978436
  0
ARC
  5
18B
100
AcDbEntity
  8
0
  6
CONTINUOUS
 62
    7
370
   15
100
AcDbCircle
 10
313.0940103891477
 20
125.6194916911436
 40
1.600000000000076
100
AcDbArc
 50
9.9999998267
 51
189.9999998267
  0
ARC
  5
18C
100
AcDbEntity
  8
0
  6
CONTINUOUS
 62
    7
370
   15
100
AcDbCircle
 10
321.4017314982477
 20
78.50456349154361
 40
6.104623512790742
100
AcDbArc
 50
253.1226184226
 51
299.1512318365
  0
ARC
  5
18D
100
AcDbEntity
  8
0
  6
CONTINUOUS
 62
    7
370
   -1
100
AcDbCircle
 10
332.5187136607785
 20
24.08398559679399
 40
0.2222222222222286
100
AcDbArc
 50
239.8325634614
 51
290.5355427126
  0
ARC
  5
18E
100
AcDbEntity
  8
0
  6
CONTINUOUS
 62
    7
370
   -1
100
AcDbCircle
 10
332.4855566243785
 20
24.306216585894
 40
0.4444447149737088
100
AcDbArc
 50
284.4773561436
 51
75.52247
  0
ARC
  5
18F
100
AcDbEntity
  8
0
  6
CONTINUOUS
 62
    7
370
   -1
100
AcDbCircle
 10
332.4855565132785
 20
21.195127696994
 40
0.4444445555500351
100
AcDbArc
 50
180
 51
0
  0
ARC
  5
190
100
AcDbEntity
  8
0
  6
CONTINUOUS
 62
    7
370
   -1
100
AcDbCircle
 10
331.5966676243785
 20
21.195127696994
 40
0.444444333300055
100
AcDbArc
 50
270
 51
0
  0
ARC
  5
191
100
AcDbEntity
  8
0
  6
CONTINUOUS
 62
    7
370
   -1
100
AcDbCircle
 10
331.3744454021785
 20
21.19512791929399
 40
0.4444445555500907
100
AcDbArc
 50
179.9999713485
 51
270
  0
ARC
  5
192
100
AcDbEntity
  8
0
  6
CONTINUOUS
 62
    7
370
   -1
100
AcDbCircle
 10
64.72561286077854
 20
25.12052959679399
 40
0.2222222222222609
100
AcDbArc
 50
239.8325634615
 51
290.5355427125
  0
ARC
  5
193
100
AcDbEntity
  8
0
  6
CONTINUOUS
 62
    7
370
   -1
100
AcDbCircle
 10
64.69245582437856
 20
25.342760585894
 40
0.4444447149736275
100
AcDbArc
 50
284.4773561436
 51
75.52247
  0
ARC
  5
194
100
AcDbEntity
  8
0
  6
CONTINUOUS
 62
    7
370
   -1
100
AcDbCircle
 10
64.69245571327855
 20
22.231671696994
 40
0.4444445555499836
100
AcDbArc
 50
180
 51
0
  0
ARC
  5
195
100
AcDbEntity
  8
0
  6
CONTINUOUS
 62
    7
370
   -1
100
AcDbCircle
 10
63.80356682437855
 20
22.231671696994
 40
0.4444443333000407
100
AcDbArc
 50
270
 51
360
  0
ARC
  5
196
100
AcDbEntity
  8
0
  6
CONTINUOUS
 62
    7
370
   -1
100
AcDbCircle
 10
63.58134460217855
 20
22.231671919294
 40
0.4444445555500943
100
AcDbArc
 50
179.9999713485
 51
270
  0
ARC
  5
197
100
AcDbEntity
  8
0
  6
CONTINUOUS
 62
    7
370
   -1
100
AcDbCircle
 10
65.01386886077853
 20
18.316817596794
 40
0.2222222222221292
100
AcDbArc
 50
239.8325634614
 51
290.5355427126
  0
ARC
  5
198
100
AcDbEntity
  8
0
  6
CONTINUOUS
 62
    7
370
   -1
100
AcDbCircle
 10
64.98071182437855
 20
18.539048585894
 40
0.4444447149737111
100
AcDbArc
 50
284.4773561436
 51
75.52247
  0
ARC
  5
199
100
AcDbEntity
  8
0
  6
CONTINUOUS
 62
    7
370
   -1
100
AcDbCircle
 10
65.01386886067854
 20
16.761284263394
 40
0.2222222222222221
100
AcDbArc
 50
239.8325634926
 51
290.5355427413
  0
ARC
  5
19A
100
AcDbEntity
  8
0
  6
CONTINUOUS
 62
    7
370
   -1
100
AcDbCircle
 10
64.98071182437855
 20
16.983515252594
 40
0.4444447149737378
100
AcDbArc
 50
284.4773561436
 51
75.52247
  0
ARC
  5
19B
100
AcDbEntity
  8
0
  6
CONTINUOUS
 62
    7
370
   -1
100
AcDbCircle
 10
82.05322886077852
 20
18.513425596794
 40
0.2222222222223224
100
AcDbArc
 50
239.8325634614
 51
290.5355427125
  0
ARC
  5
19C
100
AcDbEntity
  8
0
  6
CONTINUOUS
 62
    7
370
   -1
100
AcDbCircle
 10
82.02007182437853
 20
18.735656585894
 40
0.4444447149738234
100
AcDbArc
 50
284.4773561436
 51
75.52247
  0
ARC
  5
19D
100
AcDbEntity
  8
0
  6
CONTINUOUS
 62
    7
370
   -1
100
AcDbCircle
 10
82.05322886067853
 20
16.95789226339399
 40
0.2222222222224055
100
AcDbArc
 50
239.8325634927
 51
290.5355427413
  0
ARC
  5
19E
100
AcDbEntity
  8
0
  6
CONTINUOUS
 62
    7
370
   -1
100
AcDbCircle
 10
82.02007182437853
 20
17.18012325259399
 40
0.4444447149737751
100
AcDbArc
 50
284.4773561436
 51
75.52247
  0
ARC
  5
19F
100
AcDbEntity
  8
0
  6
CONTINUOUS
 62
    7
370
   -1
100
AcDbCircle
 10
332.5656128607785
 20
17.920529596794
 40
0.2222222222223132
100
AcDbArc
 50
239.8325634614
 51
290.5355427125
  0
ARC
  5
1A0
100
AcDbEntity
  8
0
  6
CONTINUOUS
 62
    7
370
   -1
100
AcDbCircle
 10
332.5324558243785
 20
18.142760585894
 40
0.4444447149738051
100
AcDbArc
 50
284.4773561436
 51
75.52247
  0
ARC
  5
1A1
100
AcDbEntity
  8
0
  6
CONTINUOUS
 62
    7
370
   -1
100
AcDbCircle
 10
332.5656128606785
 20
16.364996263394
 40
0.2222222222221701
100
AcDbArc
 50
239.8325634926
 51
290.5355427414
  0
ARC
  5
1A2
100
AcDbEntity
  8
0
  6
CONTINUOUS
 62
    7
370
   -1
100
AcDbCircle
 10
332.5324558243785
 20
16.587227252594
 40
0.4444447149737741
100
AcDbArc
 50
284.4773561436
 51
75.52247
  0
ARC
  5
1A3
100
AcDbEntity
  8
0
  6
CONTINUOUS
 62
    7
370
   -1
100
AcDbCircle
 10
315.1576128607786
 20
18.30452959679399
 40
0.2222222222222477
100
AcDbArc
 50
239.8325634614
 51
290.5355427125
  0
ARC
  5
1A4
100
AcDbEntity
  8
0
  6
CONTINUOUS
 62
    7
370
   -1
100
AcDbCircle
 10
315.1244558243785
 20
18.526760585894
 40
0.444444714973697
100
AcDbArc
 50
284.4773561436
 51
75.52247
  0
ARC
  5
1A5
100
AcDbEntity
  8
0
  6
CONTINUOUS
 62
    7
370
   -1
100
AcDbCircle
 10
315.1576128606785
 20
16.748996263394
 40
0.2222222222222762
100
AcDbArc
 50
239.8325634926
 51
290.5355427413
  0
ARC
  5
1A6
100
AcDbEntity
  8
0
  6
CONTINUOUS
 62
    7
370
   -1
100
AcDbCircle
 10
315.1244558243785
 20
16.971227252594
 40
0.4444447149737173
100
AcDbArc
 50
284.4773561436
 51
75.52247
  0
ARC
  5
1A7
100
AcDbEntity
  8
0
  6
CONTINUOUS
 62
    7
370
   -1
100
AcDbCircle
 10
283.7566528607786
 20
64.568849596794
 40
0.2222222222223399
100
AcDbArc
 50
239.8325634614
 51
290.5355427125
  0
ARC
  5
1A8
100
AcDbEntity
  8
0
  6
CONTINUOUS
 62
    7
370
   -1
100
AcDbCircle
 10
283.7234958243786
 20
64.79108058589401
 40
0.4444447149738388
100
AcDbArc
 50
284.4773561436
 51
75.52247
  0
ARC
  5
1A9
100
AcDbEntity
  8
0
  6
CONTINUOUS
 62
    7
370
   -1
100
AcDbCircle
 10
283.7566528606785
 20
63.013316263394
 40
0.2222222222223698
100
AcDbArc
 50
239.8325634926
 51
290.5355427413
  0
ARC
  5
1AA
100
AcDbEntity
  8
0
  6
CONTINUOUS
 62
    7
370
   -1
100
AcDbCircle
 10
283.7234958243786
 20
63.235547252594
 40
0.4444447149738868
100
AcDbArc
 50
284.4773561436
 51
75.52247
  0
ARC
  5
1AB
100
AcDbEntity
  8
0
  6
CONTINUOUS
 62
    7
370
   -1
100
AcDbCircle
 10
265.5704128607786
 20
64.65076959679399
 40
0.2222222222220903
100
AcDbArc
 50
239.8325634614
 51
290.5355427126
  0
ARC
  5
1AC
100
AcDbEntity
  8
0
  6
CONTINUOUS
 62
    7
370
   -1
100
AcDbCircle
 10
265.5372558243786
 20
64.873000585894
 40
0.4444447149735641
100
AcDbArc
 50
284.4773561436
 51
75.52247
  0
ARC
  5
1AD
100
AcDbEntity
  8
0
  6
CONTINUOUS
 62
    7
370
   -1
100
AcDbCircle
 10
265.5704128606785
 20
63.09523626339399
 40
0.2222222222222632
100
AcDbArc
 50
239.8325634926
 51
290.5355427414
  0
ARC
  5
1AE
100
AcDbEntity
  8
0
  6
CONTINUOUS
 62
    7
370
   -1
100
AcDbCircle
 10
265.5372558243786
 20
63.31746725259399
 40
0.4444447149737438
100
AcDbArc
 50
284.4773561436
 51
75.52247
  0
ARC
  5
1AF
100
AcDbEntity
  8
0
  6
CONTINUOUS
 62
    7
370
   -1
100
AcDbCircle
 10
130.6481728607785
 20
64.24116959679401
 40
0.2222222222222849
100
AcDbArc
 50
239.8325634614
 51
290.5355427125
  0
ARC
  5
1B0
100
AcDbEntity
  8
0
  6
CONTINUOUS
 62
    7
370
   -1
100
AcDbCircle
 10
130.6150158243785
 20
64.46340058589399
 40
0.4444447149737704
100
AcDbArc
 50
284.4773561436
 51
75.52247
  0
ARC
  5
1B1
100
AcDbEntity
  8
0
  6
CONTINUOUS
 62
    7
370
   -1
100
AcDbCircle
 10
130.6481728606785
 20
62.685636263394
 40
0.2222222222223198
100
AcDbArc
 50
239.8325634926
 51
290.5355427413
  0
ARC
  5
1B2
100
AcDbEntity
  8
0
  6
CONTINUOUS
 62
    7
370
   -1
100
AcDbCircle
 10
130.6150158243785
 20
62.907867252594
 40
0.4444447149738255
100
AcDbArc
 50
284.4773561436
 51
75.52247
  0
ARC
  5
1B3
100
AcDbEntity
  8
0
  6
CONTINUOUS
 62
    7
370
   -1
100
AcDbCircle
 10
112.5438528607785
 20
64.568849596794
 40
0.2222222222221943
100
AcDbArc
 50
239.8325634614
 51
290.5355427125
  0
ARC
  5
1B4
100
AcDbEntity
  8
0
  6
CONTINUOUS
 62
    7
370
   -1
100
AcDbCircle
 10
112.5106958243786
 20
64.79108058589401
 40
0.4444447149737154
100
AcDbArc
 50
284.4773561436
 51
75.52247
  0
ARC
  5
1B5
100
AcDbEntity
  8
0
  6
CONTINUOUS
 62
    7
370
   -1
100
AcDbCircle
 10
112.5438528606786
 20
63.013316263394
 40
0.2222222222222827
100
AcDbArc
 50
239.8325634926
 51
290.5355427413
  0
ARC
  5
1B6
100
AcDbEntity
  8
0
  6
CONTINUOUS
 62
    7
370
   -1
100
AcDbCircle
 10
112.5106958243786
 20
63.235547252594
 40
0.4444447149737136
100
AcDbArc
 50
284.4773561436
 51
75.52247
  0
ARC
  5
1B7
100
AcDbEntity
  8
0
  6
CONTINUOUS
 62
    7
370
   -1
100
AcDbCircle
 10
340.4029190573785
 20
30.339270216294
 40
0.2222222222222301
100
AcDbArc
 50
149.8325634851
 51
200.5355427611
  0
ARC
  5
1B8
100
AcDbEntity
  8
0
  6
CONTINUOUS
 62
    7
370
   -1
100
AcDbCircle
 10
340.6251500465785
 20
30.37242725259399
 40
0.4444447149861807
100
AcDbArc
 50
194.4773561561
 51
345.52247
  0
ARC
  5
1B9
100
AcDbEntity
  8
0
  6
CONTINUOUS
 62
    7
370
   -1
100
AcDbCircle
 10
338.8473857240785
 20
30.339270216294
 40
0.2222222222221933
100
AcDbArc
 50
149.8325634699
 51
200.5355427438
  0
ARC
  5
1BA
100
AcDbEntity
  8
0
  6
CONTINUOUS
 62
    7
370
   -1
100
AcDbCircle
 10
339.0696167132785
 20
30.37242725259399
 40
0.4444447150347142
100
AcDbArc
 50
194.4773561529
 51
345.52247
  0
ARC
  5
1BB
100
AcDbEntity
  8
0
  6
CONTINUOUS
 62
    7
370
   -1
100
AcDbCircle
 10
341.0142470573786
 20
48.43847021629399
 40
0.2222222222221062
100
AcDbArc
 50
149.832563485
 51
200.5355427611
  0
ARC
  5
1BC
100
AcDbEntity
  8
0
  6
CONTINUOUS
 62
    7
370
   -1
100
AcDbCircle
 10
341.2364780465786
 20
48.471627252594
 40
0.4444447149861949
100
AcDbArc
 50
194.4773561561
 51
345.52247
  0
ARC
  5
1BD
100
AcDbEntity
  8
0
  6
CONTINUOUS
 62
    7
370
   -1
100
AcDbCircle
 10
339.4587137240785
 20
48.43847021629399
 40
0.2222222222223705
100
AcDbArc
 50
149.8325634699
 51
200.5355427438
  0
ARC
  5
1BE
100
AcDbEntity
  8
0
  6
CONTINUOUS
 62
    7
370
   -1
100
AcDbCircle
 10
339.6809447132785
 20
48.471627252594
 40
0.4444447150346748
100
AcDbArc
 50
194.4773561529
 51
345.52247
  0
ARC
  5
1BF
100
AcDbEntity
  8
0
  6
CONTINUOUS
 62
    7
370
   -1
100
AcDbCircle
 10
56.82864705737853
 20
30.544070216294
 40
0.2222222222221502
100
AcDbArc
 50
149.8325634851
 51
200.5355427611
  0
ARC
  5
1C0
100
AcDbEntity
  8
0
  6
CONTINUOUS
 62
    7
370
   -1
100
AcDbCircle
 10
57.05087804657853
 20
30.57722725259399
 40
0.4444447149861656
100
AcDbArc
 50
194.4773561561
 51
345.52247
  0
ARC
  5
1C1
100
AcDbEntity
  8
0
  6
CONTINUOUS
 62
    7
370
   -1
100
AcDbCircle
 10
55.27311372397855
 20
30.54407021619399
 40
0.222222222222323
100
AcDbArc
 50
149.8325634539
 51
200.5355427323
  0
ARC
  5
1C2
100
AcDbEntity
  8
0
  6
CONTINUOUS
 62
    7
370
   -1
100
AcDbCircle
 10
55.49534471317855
 20
30.57722725259399
 40
0.4444447149862447
100
AcDbArc
 50
194.4773561561
 51
345.52247
  0
ARC
  5
1C3
100
AcDbEntity
  8
0
  6
CONTINUOUS
 62
    7
370
   -1
100
AcDbCircle
 10
56.93104705737852
 20
47.84967021629399
 40
0.2222222222222849
100
AcDbArc
 50
149.832563485
 51
200.5355427611
  0
ARC
  5
1C4
100
AcDbEntity
  8
0
  6
CONTINUOUS
 62
    7
370
   -1
100
AcDbCircle
 10
57.15327804657852
 20
47.882827252594
 40
0.4444447149862594
100
AcDbArc
 50
194.4773561561
 51
345.52247
  0
ARC
  5
1C5
100
AcDbEntity
  8
0
  6
CONTINUOUS
 62
    7
370
   -1
100
AcDbCircle
 10
55.37551372397854
 20
47.849670216194
 40
0.2222222222222317
100
AcDbArc
 50
149.8325634539
 51
200.5355427323
  0
ARC
  5
1C6
100
AcDbEntity
  8
0
  6
CONTINUOUS
 62
    7
370
   -1
100
AcDbCircle
 10
55.59774471317854
 20
47.882827252594
 40
0.4444447149862594
100
AcDbArc
 50
194.4773561561
 51
345.52247
  0
ARC
  5
1C7
100
AcDbEntity
  8
0
  6
CONTINUOUS
 62
    7
370
   -1
100
AcDbCircle
 10
55.34321286077852
 20
40.934929596794
 40
0.2222222222222529
100
AcDbArc
 50
239.8325634614
 51
290.5355427125
  0
ARC
  5
1C8
100
AcDbEntity
  8
0
  6
CONTINUOUS
 62
    7
370
   -1
100
AcDbCircle
 10
55.31005582437854
 20
41.157160585894
 40
0.4444447149736253
100
AcDbArc
 50
284.4773561436
 51
75.52247
  0
ARC
  5
1C9
100
AcDbEntity
  8
0
  6
CONTINUOUS
 62
    7
370
   -1
100
AcDbCircle
 10
54.90921309857856
 20
40.490493919294
 40
1.333333333333433
100
AcDbArc
 50
209.9988973431
 51
270
  0
ARC
  5
1CA
100
AcDbEntity
  8
0
  6
CONTINUOUS
 62
    7
370
   -1
100
AcDbCircle
 10
55.31005582437854
 20
39.601616141494
 40
0.4444555555500571
100
AcDbArc
 50
270
 51
90
  0
ARC
  5
1CB
100
AcDbEntity
  8
0
  6
CONTINUOUS
 62
    7
370
   -1
100
AcDbCircle
 10
55.08783337937854
 20
39.60162747479399
 40
0.4444442222111267
100
AcDbArc
 50
89.9999999284
 51
180
  0
ARC
  5
1CC
100
AcDbEntity
  8
0
  6
CONTINUOUS
 62
    7
370
   -1
100
AcDbCircle
 10
55.51238693547856
 20
38.046049474794
 40
0.242113333333368
100
AcDbArc
 50
302.7569500005
 51
57.2430419928
  0
ARC
  5
1CD
100
AcDbEntity
  8
0
  6
CONTINUOUS
 62
    7
370
   -1
100
AcDbCircle
 10
55.00417050197854
 20
37.39419457529399
 40
1.067905275739268
100
AcDbArc
 50
53.2323005244
 51
79.4881651658
  0
ARC
  5
1CE
100
AcDbEntity
  8
0
  6
CONTINUOUS
 62
    7
370
   -1
100
AcDbCircle
 10
54.50482349847852
 20
37.394189690694
 40
1.067908888888815
100
AcDbArc
 50
100.511442183
 51
126.7671529726
  0
ARC
  5
1CF
100
AcDbEntity
  8
0
  6
CONTINUOUS
 62
    7
370
   -1
100
AcDbCircle
 10
53.99661360217851
 20
38.046049474794
 40
0.2421170793094742
100
AcDbArc
 50
122.756539649
 51
237.243041996
  0
ARC
  5
1D0
100
AcDbEntity
  8
0
  6
CONTINUOUS
 62
    7
370
   -1
100
AcDbCircle
 10
54.50482330197855
 20
38.69790940589399
 40
1.067909012570219
100
AcDbArc
 50
233.2327655754
 51
259.4885989682
  0
ARC
  5
1D1
100
AcDbEntity
  8
0
  6
CONTINUOUS
 62
    7
370
   -1
100
AcDbCircle
 10
54.74762471317854
 20
39.691530141494
 40
2.08993999999994
100
AcDbArc
 50
257.913147
 51
270.18851
  0
ARC
  5
1D2
100
AcDbEntity
  8
0
  6
CONTINUOUS
 62
    7
370
   -1
100
AcDbCircle
 10
54.76136651557852
 20
39.691530172094
 40
2.089939996145862
100
AcDbArc
 50
269.8117773199
 51
282.0856302912
  0
ARC
  5
1D3
100
AcDbEntity
  8
0
  6
CONTINUOUS
 62
    7
370
   -1
100
AcDbCircle
 10
55.00417137987853
 20
38.697905030394
 40
1.067905273414887
100
AcDbArc
 50
280.5088699997
 51
306.7676388636
  0
ARC
  5
1D4
100
AcDbEntity
  8
0
  6
CONTINUOUS
 62
    7
370
   -1
100
AcDbCircle
 10
54.74762471317854
 20
36.40056880809399
 40
2.089939999999978
100
AcDbArc
 50
89.8114930001
 51
102.086868
  0
ARC
  5
1D5
100
AcDbEntity
  8
0
  6
CONTINUOUS
 62
    7
370
   -1
100
AcDbCircle
 10
54.76137582437855
 20
36.40056880809399
 40
2.089939996865981
100
AcDbArc
 50
77.913132
 51
90.18848088359999
  0
ARC
  5
1D6
100
AcDbEntity
  8
0
  6
CONTINUOUS
 62
    7
370
   -1
100
AcDbCircle
 10
340.5272128607785
 20
41.05780959679399
 40
0.2222222222222286
100
AcDbArc
 50
239.8325634614
 51
290.5355427126
  0
ARC
  5
1D7
100
AcDbEntity
  8
0
  6
CONTINUOUS
 62
    7
370
   -1
100
AcDbCircle
 10
340.4940558243785
 20
41.28004058589399
 40
0.4444447149737156
100
AcDbArc
 50
284.4773561436
 51
75.52247
  0
ARC
  5
1D8
100
AcDbEntity
  8
0
  6
CONTINUOUS
 62
    7
370
   -1
100
AcDbCircle
 10
340.0932130985785
 20
40.613373919294
 40
1.33333333333339
100
AcDbArc
 50
209.9988973431
 51
270
  0
ARC
  5
1D9
100
AcDbEntity
  8
0
  6
CONTINUOUS
 62
    7
370
   -1
100
AcDbCircle
 10
340.4940558243785
 20
39.72449614149399
 40
0.4444555555500642
100
AcDbArc
 50
270
 51
90
  0
ARC
  5
1DA
100
AcDbEntity
  8
0
  6
CONTINUOUS
 62
    7
370
   -1
100
AcDbCircle
 10
340.2718333793785
 20
39.724507474794
 40
0.444444222211132
100
AcDbArc
 50
89.9999999284
 51
180
  0
ARC
  5
1DB
100
AcDbEntity
  8
0
  6
CONTINUOUS
 62
    7
370
   -1
100
AcDbCircle
 10
340.6963869354785
 20
38.168929474794
 40
0.2421133333333729
100
AcDbArc
 50
302.7569500005
 51
57.2430419928
  0
ARC
  5
1DC
100
AcDbEntity
  8
0
  6
CONTINUOUS
 62
    7
370
   -1
100
AcDbCircle
 10
340.1881705019786
 20
37.517074575294
 40
1.067905275739361
100
AcDbArc
 50
53.2323005245
 51
79.4881651658
  0
ARC
  5
1DD
100
AcDbEntity
  8
0
  6
CONTINUOUS
 62
    7
370
   -1
100
AcDbCircle
 10
339.6888234984785
 20
37.51706969069399
 40
1.067908888888907
100
AcDbArc
 50
100.5114421757
 51
126.7671529704
  0
ARC
  5
1DE
100
AcDbEntity
  8
0
  6
CONTINUOUS
 62
    7
370
   -1
100
AcDbCircle
 10
339.1806136021785
 20
38.168929474794
 40
0.2421170793095239
100
AcDbArc
 50
122.7565396491
 51
237.2430419959
  0
ARC
  5
1DF
100
AcDbEntity
  8
0
  6
CONTINUOUS
 62
    7
370
   -1
100
AcDbCircle
 10
339.6888233019785
 20
38.820789405894
 40
1.067909012570439
100
AcDbArc
 50
233.2327655776
 51
259.4885989754
  0
ARC
  5
1E0
100
AcDbEntity
  8
0
  6
CONTINUOUS
 62
    7
370
   -1
100
AcDbCircle
 10
339.9316247132786
 20
39.81441014149399
 40
2.089940000000048
100
AcDbArc
 50
257.913147
 51
270.18851
  0
ARC
  5
1E1
100
AcDbEntity
  8
0
  6
CONTINUOUS
 62
    7
370
   -1
100
AcDbCircle
 10
339.9453665155785
 20
39.81441017209399
 40
2.089939996145767
100
AcDbArc
 50
269.8117773225
 51
282.0856302914
  0
ARC
  5
1E2
100
AcDbEntity
  8
0
  6
CONTINUOUS
 62
    7
370
   -1
100
AcDbCircle
 10
340.1881713798786
 20
38.820785030394
 40
1.067905273414892
100
AcDbArc
 50
280.5088700001
 51
306.7676388636
  0
ARC
  5
1E3
100
AcDbEntity
  8
0
  6
CONTINUOUS
 62
    7
370
   -1
100
AcDbCircle
 10
339.9316247132786
 20
36.523448808094
 40
2.089939999999966
100
AcDbArc
 50
89.81149300040001
 51
102.086868
  0
ARC
  5
1E4
100
AcDbEntity
  8
0
  6
CONTINUOUS
 62
    7
370
   -1
100
AcDbCircle
 10
339.9453758243785
 20
36.523448808094
 40
2.089939996865706
100
AcDbArc
 50
77.913132
 51
90.18848088110001
  0
ARC
  5
1E5
100
AcDbEntity
  8
0
  6
CONTINUOUS
 62
    7
370
   -1
100
AcDbCircle
 10
282.9165269354785
 20
55.521683919194
 40
0.444444222211132
100
AcDbArc
 50
269.9999999284
 51
0
  0
ARC
  5
1E6
100
AcDbEntity
  8
0
  6
CONTINUOUS
 62
    7
370
   -1
100
AcDbCircle
 10
282.6943047121786
 20
55.52168436369399
 40
0.444444666682725
100
AcDbArc
 50
179.9971638581
 51
270
  0
ARC
  5
1E7
100
AcDbEntity
  8
0
  6
CONTINUOUS
 62
    7
370
   -1
100
AcDbCircle
 10
111.5970343274785
 20
56.538278351194
 40
0.4444442222112386
100
AcDbArc
 50
269.9999999284
 51
0
  0
ARC
  5
1E8
100
AcDbEntity
  8
0
  6
CONTINUOUS
 62
    7
370
   -1
100
AcDbCircle
 10
111.3748121040786
 20
56.53827879569399
 40
0.4444446666327337
100
AcDbArc
 50
179.9971638517
 51
270
  0
ARC
  5
1E9
100
AcDbEntity
  8
0
  6
CONTINUOUS
 62
    7
370
   -1
100
AcDbCircle
 10
226.5166272528785
 20
46.652580077994
 40
0.4444444444722251
100
AcDbArc
 50
179.9999999964
 51
270
  0
ARC
  5
1EA
100
AcDbEntity
  8
0
  6
CONTINUOUS
 62
    7
370
   -1
100
AcDbCircle
 10
223.8499383640785
 20
47.09702407799399
 40
0.8888666666500171
100
AcDbArc
 50
180
 51
0
  0
ARC
  5
1EB
100
AcDbEntity
  8
0
  6
CONTINUOUS
 62
    7
370
   -1
100
AcDbCircle
 10
224.0721383640786
 20
48.20813563499399
 40
0.6666666665999799
100
AcDbArc
 50
359.9999998727
 51
90
  0
ARC
  5
1EC
100
AcDbEntity
  8
0
  6
CONTINUOUS
 62
    7
370
   -1
100
AcDbCircle
 10
220.5167161417785
 20
48.208135633594
 40
0.6666666666501726
100
AcDbArc
 50
89.99999999569999
 51
180
  0
ARC
  5
1ED
100
AcDbEntity
  8
0
  6
CONTINUOUS
 62
    7
370
   -1
100
AcDbCircle
 10
220.5167161417785
 20
46.87480230029399
 40
0.6666666666501726
100
AcDbArc
 50
179.9999999957
 51
270
  0
ARC
  5
1EE
100
AcDbEntity
  8
0
  6
CONTINUOUS
 62
    7
370
   -1
100
AcDbCircle
 10
217.6278716973785
 20
46.652580077994
 40
0.4444444444723317
100
AcDbArc
 50
179.9999999964
 51
270
  0
ARC
  5
1EF
100
AcDbEntity
  8
0
  6
CONTINUOUS
 62
    7
370
   -1
100
AcDbCircle
 10
214.7390272528785
 20
46.874802300194
 40
0.6666666666500447
100
AcDbArc
 50
180.0000000043
 51
270
  0
ARC
  5
1F0
100
AcDbEntity
  8
0
  6
CONTINUOUS
 62
    7
370
   -1
100
AcDbCircle
 10
215.1834716972785
 20
48.208135411094
 40
0.6666668886500275
100
AcDbArc
 50
270
 51
90
  0
ARC
  5
1F1
100
AcDbEntity
  8
0
  6
CONTINUOUS
 62
    7
370
   -1
100
AcDbCircle
 10
211.6280050306785
 20
48.208135633494
 40
0.6666666667000101
100
AcDbArc
 50
90
 51
180
  0
ARC
  5
1F2
100
AcDbEntity
  8
0
  6
CONTINUOUS
 62
    7
370
   -1
100
AcDbCircle
 10
211.6280050306785
 20
46.874802300194
 40
0.6666666667000101
100
AcDbArc
 50
180
 51
270
  0
ARC
  5
1F3
100
AcDbEntity
  8
0
  6
CONTINUOUS
 62
    7
370
   -1
100
AcDbCircle
 10
208.5169828084785
 20
48.208135633494
 40
0.6666666667001095
100
AcDbArc
 50
90
 51
180
  0
ARC
  5
1F4
100
AcDbEntity
  8
0
  6
CONTINUOUS
 62
    7
370
   -1
100
AcDbCircle
 10
208.5169828084785
 20
46.874802300194
 40
0.6666666667001095
100
AcDbArc
 50
180
 51
270
  0
ARC
  5
1F5
100
AcDbEntity
  8
0
  6
CONTINUOUS
 62
    7
370
   -1
100
AcDbCircle
 10
205.6281383639786
 20
46.652580077994
 40
0.4444444444722251
100
AcDbArc
 50
179.9999999964
 51
270
  0
ARC
  5
1F6
100
AcDbEntity
  8
0
  6
CONTINUOUS
 62
    7
370
   -1
100
AcDbCircle
 10
202.9615161418785
 20
47.985912966894
 40
0.8889333333501668
100
AcDbArc
 50
0
 51
180
  0
ARC
  5
1F7
100
AcDbEntity
  8
0
  6
CONTINUOUS
 62
    7
370
   -1
100
AcDbCircle
 10
202.9615161418785
 20
47.09702407799399
 40
0.8889333333501668
100
AcDbArc
 50
180
 51
0
  0
ARC
  5
1F8
100
AcDbEntity
  8
0
  6
CONTINUOUS
 62
    7
370
   -1
100
AcDbCircle
 10
198.7392045862786
 20
46.874802300194
 40
0.6666666666501726
100
AcDbArc
 50
270.0000000043
 51
0
  0
ARC
  5
1F9
100
AcDbEntity
  8
0
  6
CONTINUOUS
 62
    7
370
   -1
100
AcDbCircle
 10
198.7392045862786
 20
48.208135633594
 40
0.6666666666501726
100
AcDbArc
 50
359.9999999957
 51
90
  0
ARC
  5
1FA
100
AcDbEntity
  8
0
  6
CONTINUOUS
 62
    7
370
   -1
100
AcDbCircle
 10
195.8503601418785
 20
47.985912966894
 40
0.8889333333499394
100
AcDbArc
 50
0
 51
180
  0
ARC
  5
1FB
100
AcDbEntity
  8
0
  6
CONTINUOUS
 62
    7
370
   -1
100
AcDbCircle
 10
195.8503601418785
 20
47.09702407799399
 40
0.8889333333499394
100
AcDbArc
 50
180
 51
0
  0
ARC
  5
1FC
100
AcDbEntity
  8
0
  6
CONTINUOUS
 62
    7
370
   -1
100
AcDbCircle
 10
191.6280490306785
 20
46.874802300194
 40
0.666666666700138
100
AcDbArc
 50
180
 51
270
  0
LINE
  5
1FD
100
AcDbEntity
  8
0
  6
CONTINUOUS
 62
    7
370
   -1
100
AcDbLine
 10
52.57690026877856
 20
51.22718280809399
 11
52.57690026877856
 21
29.22718280809399
  0
LINE
  5
1FE
100
AcDbEntity
  8
0
  6
CONTINUOUS
 62
    7
370
   -1
100
AcDbLine
 10
342.5769002687786
 20
29.22718280809399
 11
342.5769002687786
 21
51.22718280809399
  0
LINE
  5
1FF
100
AcDbEntity
  8
0
  6
CONTINUOUS
 62
    7
370
   -1
100
AcDbLine
 10
61.07690026877856
 20
29.22718280809399
 11
61.07690026877856
 21
14.22718280809399
  0
LINE
  5
200
100
AcDbEntity
  8
0
  6
CONTINUOUS
 62
    7
370
   -1
100
AcDbLine
 10
334.0769002687786
 20
14.22718280809399
 11
334.0769002687786
 21
29.22718280809399
  0
LINE
  5
201
100
AcDbEntity
  8
0
  6
CONTINUOUS
 62
    7
370
   -1
100
AcDbLine
 10
334.0769002687786
 20
29.22718280809399
 11
342.5769002687786
 21
29.22718280809399
  0
LINE
  5
202
100
AcDbEntity
  8
0
  6
CONTINUOUS
 62
    7
370
   -1
100
AcDbLine
 10
342.5769002687786
 20
51.22718280809399
 11
285.0769002687786
 21
51.22718280809399
  0
LINE
  5
203
100
AcDbEntity
  8
0
  6
CONTINUOUS
 62
    7
370
   -1
100
AcDbLine
 10
61.07690026877856
 20
29.22718280809399
 11
52.57690026877856
 21
29.22718280809399
  0
LINE
  5
204
100
AcDbEntity
  8
0
  6
CONTINUOUS
 62
    7
370
   -1
100
AcDbLine
 10
52.57690026877856
 20
51.22718280809399
 11
110.0769002687786
 21
51.22718280809399
  0
LINE
  5
205
100
AcDbEntity
  8
0
  6
CONTINUOUS
 62
    7
370
   -1
100
AcDbLine
 10
312.0769002687786
 20
14.22718280809399
 11
312.0769002687786
 21
29.22718280809399
  0
LINE
  5
206
100
AcDbEntity
  8
0
  6
CONTINUOUS
 62
    7
370
   -1
100
AcDbLine
 10
83.07690026877856
 20
29.22718280809399
 11
83.07690026877856
 21
14.22718280809399
  0
LINE
  5
207
100
AcDbEntity
  8
0
  6
CONTINUOUS
 62
    7
370
   -1
100
AcDbLine
 10
312.0769002687786
 20
29.22718280809399
 11
83.07690026877856
 21
29.22718280809399
  0
LINE
  5
208
100
AcDbEntity
  8
0
  6
CONTINUOUS
 62
    7
370
   -1
100
AcDbLine
 10
312.0769002687786
 20
14.22718280809399
 11
334.0769002687786
 21
14.22718280809399
  0
LINE
  5
209
100
AcDbEntity
  8
0
  6
CONTINUOUS
 62
    7
370
   -1
100
AcDbLine
 10
83.07690026877856
 20
14.22718280809399
 11
61.07690026877856
 21
14.22718280809399
  0
LINE
  5
20A
100
AcDbEntity
  8
0
  6
CONTINUOUS
 62
    7
370
   -1
100
AcDbLine
 10
285.0769002687786
 20
66.227182808094
 11
263.0769002687786
 21
66.227182808094
  0
LINE
  5
20B
100
AcDbEntity
  8
0
  6
CONTINUOUS
 62
    7
370
   -1
100
AcDbLine
 10
263.0769002687786
 20
66.227182808094
 11
263.0769002687786
 21
51.22718280809399
  0
LINE
  5
20C
100
AcDbEntity
  8
0
  6
CONTINUOUS
 62
    7
370
   -1
100
AcDbLine
 10
285.0769002687786
 20
51.22718280809399
 11
285.0769002687786
 21
66.227182808094
  0
LINE
  5
20D
100
AcDbEntity
  8
0
  6
CONTINUOUS
 62
    7
370
   -1
100
AcDbLine
 10
110.0769002687786
 20
66.227182808094
 11
132.0769002687786
 21
66.227182808094
  0
LINE
  5
20E
100
AcDbEntity
  8
0
  6
CONTINUOUS
 62
    7
370
   -1
100
AcDbLine
 10
132.0769002687786
 20
66.227182808094
 11
132.0769002687786
 21
51.22718280809399
  0
LINE
  5
20F
100
AcDbEntity
  8
0
  6
CONTINUOUS
 62
    7
370
   -1
100
AcDbLine
 10
110.0769002687786
 20
51.22718280809399
 11
110.0769002687786
 21
66.227182808094
  0
LINE
  5
210
100
AcDbEntity
  8
0
  6
CONTINUOUS
 62
    7
370
   -1
100
AcDbLine
 10
263.0769002687786
 20
51.22718280809399
 11
132.0769002687786
 21
51.22718280809399
  0
LINE
  5
211
100
AcDbEntity
  8
0
  6
CONTINUOUS
 62
    7
370
   -1
100
AcDbLine
 10
330.9300008467785
 20
23.86177214149399
 11
330.9300010687786
 21
24.750638585894
  0
LINE
  5
212
100
AcDbEntity
  8
0
  6
CONTINUOUS
 62
    7
370
   -1
100
AcDbLine
 10
330.9300010687786
 20
24.750638585894
 11
332.4070406243785
 21
23.891861030394
  0
LINE
  5
213
100
AcDbEntity
  8
0
  6
CONTINUOUS
 62
    7
370
   -1
100
AcDbLine
 10
332.9300010687786
 20
23.195105474794
 11
332.9300010687786
 21
22.306238808094
  0
LINE
  5
214
100
AcDbEntity
  8
0
  6
CONTINUOUS
 62
    7
370
   -1
100
AcDbLine
 10
332.9300010687786
 20
22.306238808094
 11
330.9300008465785
 21
22.861772141494
  0
LINE
  5
215
100
AcDbEntity
  8
0
  6
CONTINUOUS
 62
    7
370
   -1
100
AcDbLine
 10
332.0411119576785
 20
22.750683252594
 11
332.0411119576785
 21
22.306238808094
  0
LINE
  5
216
100
AcDbEntity
  8
0
  6
CONTINUOUS
 62
    7
370
   -1
100
AcDbLine
 10
332.9300010687786
 20
21.639572141494
 11
332.9300010687786
 21
21.195127696994
  0
LINE
  5
217
100
AcDbEntity
  8
0
  6
CONTINUOUS
 62
    7
370
   -1
100
AcDbLine
 10
332.0411119576785
 20
21.195127696994
 11
332.0411119576785
 21
21.417349919294
  0
LINE
  5
218
100
AcDbEntity
  8
0
  6
CONTINUOUS
 62
    7
370
   -1
100
AcDbLine
 10
331.5966676243785
 20
20.75068336369399
 11
331.3744454021785
 21
20.75068336369399
  0
LINE
  5
219
100
AcDbEntity
  8
0
  6
CONTINUOUS
 62
    7
370
   -1
100
AcDbLine
 10
330.9300008465785
 20
21.195128141494
 11
330.9300010687786
 21
21.639572141494
  0
LINE
  5
21A
100
AcDbEntity
  8
0
  6
CONTINUOUS
 62
    7
370
   -1
100
AcDbLine
 10
63.13690004677852
 20
24.89831614149399
 11
63.13690026877856
 21
25.78718258589399
  0
LINE
  5
21B
100
AcDbEntity
  8
0
  6
CONTINUOUS
 62
    7
370
   -1
100
AcDbLine
 10
63.13690026877856
 20
25.78718258589399
 11
64.61393982437852
 21
24.928405030394
  0
LINE
  5
21C
100
AcDbEntity
  8
0
  6
CONTINUOUS
 62
    7
370
   -1
100
AcDbLine
 10
65.13690026877856
 20
24.231649474794
 11
65.13690026877856
 21
23.342782808094
  0
LINE
  5
21D
100
AcDbEntity
  8
0
  6
CONTINUOUS
 62
    7
370
   -1
100
AcDbLine
 10
65.13690026877856
 20
23.342782808094
 11
63.13690004657855
 21
23.89831614149399
  0
LINE
  5
21E
100
AcDbEntity
  8
0
  6
CONTINUOUS
 62
    7
370
   -1
100
AcDbLine
 10
64.24801115767855
 20
23.78722725259399
 11
64.24801115767855
 21
23.342782808094
  0
LINE
  5
21F
100
AcDbEntity
  8
0
  6
CONTINUOUS
 62
    7
370
   -1
100
AcDbLine
 10
65.13690026877856
 20
22.676116141494
 11
65.13690026877856
 21
22.231671696994
  0
LINE
  5
220
100
AcDbEntity
  8
0
  6
CONTINUOUS
 62
    7
370
   -1
100
AcDbLine
 10
64.24801115767855
 20
22.231671696994
 11
64.24801115767855
 21
22.453893919294
  0
LINE
  5
221
100
AcDbEntity
  8
0
  6
CONTINUOUS
 62
    7
370
   -1
100
AcDbLine
 10
63.80356682437855
 20
21.787227363694
 11
63.58134460217855
 21
21.787227363694
  0
LINE
  5
222
100
AcDbEntity
  8
0
  6
CONTINUOUS
 62
    7
370
   -1
100
AcDbLine
 10
63.13690004657855
 20
22.23167214149399
 11
63.13690026877856
 21
22.676116141494
  0
LINE
  5
223
100
AcDbEntity
  8
0
  6
CONTINUOUS
 62
    7
370
   -1
100
AcDbLine
 10
63.42515604677851
 20
18.094604141494
 11
63.42515626877855
 21
18.983470585894
  0
LINE
  5
224
100
AcDbEntity
  8
0
  6
CONTINUOUS
 62
    7
370
   -1
100
AcDbLine
 10
63.42515626877855
 20
18.983470585894
 11
64.90219582437851
 21
18.124693030394
  0
LINE
  5
225
100
AcDbEntity
  8
0
  6
CONTINUOUS
 62
    7
370
   -1
100
AcDbLine
 10
63.42515604677851
 20
16.539070808094
 11
63.42515626877855
 21
17.427937252594
  0
LINE
  5
226
100
AcDbEntity
  8
0
  6
CONTINUOUS
 62
    7
370
   -1
100
AcDbLine
 10
63.42515626877855
 20
17.427937252594
 11
64.90219582437851
 21
16.569159696994
  0
LINE
  5
227
100
AcDbEntity
  8
0
  6
CONTINUOUS
 62
    7
370
   -1
100
AcDbLine
 10
80.46451604677856
 20
18.291212141494
 11
80.46451626877854
 21
19.18007858589399
  0
LINE
  5
228
100
AcDbEntity
  8
0
  6
CONTINUOUS
 62
    7
370
   -1
100
AcDbLine
 10
80.46451626877854
 20
19.18007858589399
 11
81.94155582437855
 21
18.321301030394
  0
LINE
  5
229
100
AcDbEntity
  8
0
  6
CONTINUOUS
 62
    7
370
   -1
100
AcDbLine
 10
80.46451604677856
 20
16.735678808094
 11
80.46451626877854
 21
17.624545252594
  0
LINE
  5
22A
100
AcDbEntity
  8
0
  6
CONTINUOUS
 62
    7
370
   -1
100
AcDbLine
 10
80.46451626877854
 20
17.624545252594
 11
81.94155582437855
 21
16.765767696994
  0
LINE
  5
22B
100
AcDbEntity
  8
0
  6
CONTINUOUS
 62
    7
370
   -1
100
AcDbLine
 10
330.9769000467786
 20
17.698316141494
 11
330.9769002687785
 21
18.58718258589399
  0
LINE
  5
22C
100
AcDbEntity
  8
0
  6
CONTINUOUS
 62
    7
370
   -1
100
AcDbLine
 10
330.9769002687785
 20
18.58718258589399
 11
332.4539398243786
 21
17.728405030394
  0
LINE
  5
22D
100
AcDbEntity
  8
0
  6
CONTINUOUS
 62
    7
370
   -1
100
AcDbLine
 10
330.9769000467786
 20
16.142782808094
 11
330.9769002687785
 21
17.031649252594
  0
LINE
  5
22E
100
AcDbEntity
  8
0
  6
CONTINUOUS
 62
    7
370
   -1
100
AcDbLine
 10
330.9769002687785
 20
17.031649252594
 11
332.4539398243786
 21
16.172871696994
  0
LINE
  5
22F
100
AcDbEntity
  8
0
  6
CONTINUOUS
 62
    7
370
   -1
100
AcDbLine
 10
313.5689000467785
 20
18.082316141494
 11
313.5689002687785
 21
18.971182585894
  0
LINE
  5
230
100
AcDbEntity
  8
0
  6
CONTINUOUS
 62
    7
370
   -1
100
AcDbLine
 10
313.5689002687785
 20
18.971182585894
 11
315.0459398243785
 21
18.112405030394
  0
LINE
  5
231
100
AcDbEntity
  8
0
  6
CONTINUOUS
 62
    7
370
   -1
100
AcDbLine
 10
313.5689000467785
 20
16.52678280809399
 11
313.5689002687785
 21
17.415649252594
  0
LINE
  5
232
100
AcDbEntity
  8
0
  6
CONTINUOUS
 62
    7
370
   -1
100
AcDbLine
 10
313.5689002687785
 20
17.415649252594
 11
315.0459398243785
 21
16.556871696994
  0
LINE
  5
233
100
AcDbEntity
  8
0
  6
CONTINUOUS
 62
    7
370
   -1
100
AcDbLine
 10
282.1679400467785
 20
64.346636141494
 11
282.1679402687785
 21
65.23550258589398
  0
LINE
  5
234
100
AcDbEntity
  8
0
  6
CONTINUOUS
 62
    7
370
   -1
100
AcDbLine
 10
282.1679402687785
 20
65.23550258589398
 11
283.6449798243785
 21
64.376725030394
  0
LINE
  5
235
100
AcDbEntity
  8
0
  6
CONTINUOUS
 62
    7
370
   -1
100
AcDbLine
 10
282.1679400467785
 20
62.79110280819399
 11
282.1679402687785
 21
63.679969252594
  0
LINE
  5
236
100
AcDbEntity
  8
0
  6
CONTINUOUS
 62
    7
370
   -1
100
AcDbLine
 10
282.1679402687785
 20
63.679969252594
 11
283.6449798243785
 21
62.821191696994
  0
LINE
  5
237
100
AcDbEntity
  8
0
  6
CONTINUOUS
 62
    7
370
   -1
100
AcDbLine
 10
263.9817000467785
 20
64.428556141494
 11
263.9817002687785
 21
65.31742258589401
  0
LINE
  5
238
100
AcDbEntity
  8
0
  6
CONTINUOUS
 62
    7
370
   -1
100
AcDbLine
 10
263.9817002687785
 20
65.31742258589401
 11
265.4587398243785
 21
64.458645030394
  0
LINE
  5
239
100
AcDbEntity
  8
0
  6
CONTINUOUS
 62
    7
370
   -1
100
AcDbLine
 10
263.9817000467785
 20
62.873022808194
 11
263.9817002687785
 21
63.761889252594
  0
LINE
  5
23A
100
AcDbEntity
  8
0
  6
CONTINUOUS
 62
    7
370
   -1
100
AcDbLine
 10
263.9817002687785
 20
63.761889252594
 11
265.4587398243785
 21
62.903111696994
  0
LINE
  5
23B
100
AcDbEntity
  8
0
  6
CONTINUOUS
 62
    7
370
   -1
100
AcDbLine
 10
129.0594600467786
 20
64.01895614149399
 11
129.0594602687785
 21
64.907822585894
  0
LINE
  5
23C
100
AcDbEntity
  8
0
  6
CONTINUOUS
 62
    7
370
   -1
100
AcDbLine
 10
129.0594602687785
 20
64.907822585894
 11
130.5364998243786
 21
64.04904503039398
  0
LINE
  5
23D
100
AcDbEntity
  8
0
  6
CONTINUOUS
 62
    7
370
   -1
100
AcDbLine
 10
129.0594600467786
 20
62.46342280819399
 11
129.0594602687785
 21
63.352289252594
  0
LINE
  5
23E
100
AcDbEntity
  8
0
  6
CONTINUOUS
 62
    7
370
   -1
100
AcDbLine
 10
129.0594602687785
 20
63.352289252594
 11
130.5364998243786
 21
62.493511696994
  0
LINE
  5
23F
100
AcDbEntity
  8
0
  6
CONTINUOUS
 62
    7
370
   -1
100
AcDbLine
 10
110.9551400467785
 20
64.346636141494
 11
110.9551402687786
 21
65.23550258589398
  0
LINE
  5
240
100
AcDbEntity
  8
0
  6
CONTINUOUS
 62
    7
370
   -1
100
AcDbLine
 10
110.9551402687786
 20
65.23550258589398
 11
112.4321798243785
 21
64.376725030394
  0
LINE
  5
241
100
AcDbEntity
  8
0
  6
CONTINUOUS
 62
    7
370
   -1
100
AcDbLine
 10
110.9551400467785
 20
62.79110280819399
 11
110.9551402687786
 21
63.679969252594
  0
LINE
  5
242
100
AcDbEntity
  8
0
  6
CONTINUOUS
 62
    7
370
   -1
100
AcDbLine
 10
110.9551402687786
 20
63.679969252594
 11
112.4321798243785
 21
62.821191696994
  0
LINE
  5
243
100
AcDbEntity
  8
0
  6
CONTINUOUS
 62
    7
370
   -1
100
AcDbLine
 10
340.1807056020785
 20
31.927983030194
 11
341.0695720465785
 21
31.92798280809399
  0
LINE
  5
244
100
AcDbEntity
  8
0
  6
CONTINUOUS
 62
    7
370
   -1
100
AcDbLine
 10
341.0695720465785
 20
31.92798280809399
 11
340.2107944909785
 21
30.45094325259399
  0
LINE
  5
245
100
AcDbEntity
  8
0
  6
CONTINUOUS
 62
    7
370
   -1
100
AcDbLine
 10
338.6251722687786
 20
31.927983030194
 11
339.5140387132785
 21
31.92798280809399
  0
LINE
  5
246
100
AcDbEntity
  8
0
  6
CONTINUOUS
 62
    7
370
   -1
100
AcDbLine
 10
339.5140387132785
 20
31.92798280809399
 11
338.6552611576785
 21
30.45094325259399
  0
LINE
  5
247
100
AcDbEntity
  8
0
  6
CONTINUOUS
 62
    7
370
   -1
100
AcDbLine
 10
340.7920336020786
 20
50.027183030194
 11
341.6809000465785
 21
50.027182808094
  0
LINE
  5
248
100
AcDbEntity
  8
0
  6
CONTINUOUS
 62
    7
370
   -1
100
AcDbLine
 10
341.6809000465785
 20
50.027182808094
 11
340.8221224909785
 21
48.550143252594
  0
LINE
  5
249
100
AcDbEntity
  8
0
  6
CONTINUOUS
 62
    7
370
   -1
100
AcDbLine
 10
339.2365002687785
 20
50.027183030194
 11
340.1253667132785
 21
50.027182808094
  0
LINE
  5
24A
100
AcDbEntity
  8
0
  6
CONTINUOUS
 62
    7
370
   -1
100
AcDbLine
 10
340.1253667132785
 20
50.027182808094
 11
339.2665891576785
 21
48.550143252594
  0
LINE
  5
24B
100
AcDbEntity
  8
0
  6
CONTINUOUS
 62
    7
370
   -1
100
AcDbLine
 10
56.60643360207854
 20
32.132783030194
 11
57.49530004657851
 21
32.132782808094
  0
LINE
  5
24C
100
AcDbEntity
  8
0
  6
CONTINUOUS
 62
    7
370
   -1
100
AcDbLine
 10
57.49530004657851
 20
32.132782808094
 11
56.63652249097851
 21
30.65574325259399
  0
LINE
  5
24D
100
AcDbEntity
  8
0
  6
CONTINUOUS
 62
    7
370
   -1
100
AcDbLine
 10
55.05090026877855
 20
32.132783030194
 11
55.93976671317853
 21
32.132782808094
  0
LINE
  5
24E
100
AcDbEntity
  8
0
  6
CONTINUOUS
 62
    7
370
   -1
100
AcDbLine
 10
55.93976671317853
 20
32.132782808094
 11
55.08098915767852
 21
30.65574325259399
  0
LINE
  5
24F
100
AcDbEntity
  8
0
  6
CONTINUOUS
 62
    7
370
   -1
100
AcDbLine
 10
56.70883360207853
 20
49.438383030194
 11
57.59770004657855
 21
49.438382808094
  0
LINE
  5
250
100
AcDbEntity
  8
0
  6
CONTINUOUS
 62
    7
370
   -1
100
AcDbLine
 10
57.59770004657855
 20
49.438382808094
 11
56.73892249097855
 21
47.961343252594
  0
LINE
  5
251
100
AcDbEntity
  8
0
  6
CONTINUOUS
 62
    7
370
   -1
100
AcDbLine
 10
55.15330026877854
 20
49.438383030194
 11
56.04216671317852
 21
49.438382808094
  0
LINE
  5
252
100
AcDbEntity
  8
0
  6
CONTINUOUS
 62
    7
370
   -1
100
AcDbLine
 10
56.04216671317852
 20
49.438382808094
 11
55.18338915767856
 21
47.961343252594
  0
LINE
  5
253
100
AcDbEntity
  8
0
  6
CONTINUOUS
 62
    7
370
   -1
100
AcDbLine
 10
53.75450004677856
 20
40.712716141494
 11
53.75450026877854
 21
41.60158258589399
  0
LINE
  5
254
100
AcDbEntity
  8
0
  6
CONTINUOUS
 62
    7
370
   -1
100
AcDbLine
 10
53.75450026877854
 20
41.60158258589399
 11
55.23153982437856
 21
40.742805030394
  0
LINE
  5
255
100
AcDbEntity
  8
0
  6
CONTINUOUS
 62
    7
370
   -1
100
AcDbLine
 10
54.90921309857856
 20
39.157160585894
 11
55.31005582437854
 21
39.157160585894
  0
LINE
  5
256
100
AcDbEntity
  8
0
  6
CONTINUOUS
 62
    7
370
   -1
100
AcDbLine
 10
55.31005582437854
 20
40.046071696994
 11
55.08783337987853
 21
40.046071696994
  0
LINE
  5
257
100
AcDbEntity
  8
0
  6
CONTINUOUS
 62
    7
370
   -1
100
AcDbLine
 10
54.64338915717855
 20
39.60162747479399
 11
54.64338915717855
 21
39.183916141494
  0
LINE
  5
258
100
AcDbEntity
  8
0
  6
CONTINUOUS
 62
    7
370
   -1
100
AcDbLine
 10
338.9385000467785
 20
40.83559614149399
 11
338.9385002687785
 21
41.724462585894
  0
LINE
  5
259
100
AcDbEntity
  8
0
  6
CONTINUOUS
 62
    7
370
   -1
100
AcDbLine
 10
338.9385002687785
 20
41.724462585894
 11
340.4155398243785
 21
40.865685030394
  0
LINE
  5
25A
100
AcDbEntity
  8
0
  6
CONTINUOUS
 62
    7
370
   -1
100
AcDbLine
 10
340.0932130985785
 20
39.28004058589399
 11
340.4940558243785
 21
39.28004058589399
  0
LINE
  5
25B
100
AcDbEntity
  8
0
  6
CONTINUOUS
 62
    7
370
   -1
100
AcDbLine
 10
340.4940558243785
 20
40.16895169699399
 11
340.2718333798786
 21
40.16895169699399
  0
LINE
  5
25C
100
AcDbEntity
  8
0
  6
CONTINUOUS
 62
    7
370
   -1
100
AcDbLine
 10
339.8273891571785
 20
39.724507474794
 11
339.8273891571785
 21
39.306796141494
  0
LINE
  5
25D
100
AcDbEntity
  8
0
  6
CONTINUOUS
 62
    7
370
   -1
100
AcDbLine
 10
283.8054158242785
 20
58.632773030394
 11
284.2498602687785
 21
58.18832858589399
  0
LINE
  5
25E
100
AcDbEntity
  8
0
  6
CONTINUOUS
 62
    7
370
   -1
100
AcDbLine
 10
284.2498602687785
 20
58.18832858589399
 11
282.2498600465785
 21
58.18832858589399
  0
LINE
  5
25F
100
AcDbEntity
  8
0
  6
CONTINUOUS
 62
    7
370
   -1
100
AcDbLine
 10
284.2498602687785
 20
57.521661919294
 11
284.2498602687785
 21
56.632795252594
  0
LINE
  5
260
100
AcDbEntity
  8
0
  6
CONTINUOUS
 62
    7
370
   -1
100
AcDbLine
 10
284.2498602687785
 20
56.632795252594
 11
282.2498600465785
 21
57.18832858589399
  0
LINE
  5
261
100
AcDbEntity
  8
0
  6
CONTINUOUS
 62
    7
370
   -1
100
AcDbLine
 10
283.3609711576785
 20
57.07723969699399
 11
283.3609711576785
 21
56.632795252594
  0
LINE
  5
262
100
AcDbEntity
  8
0
  6
CONTINUOUS
 62
    7
370
   -1
100
AcDbLine
 10
284.2498602687785
 20
55.077239696994
 11
284.2498602687785
 21
55.96615080819399
  0
LINE
  5
263
100
AcDbEntity
  8
0
  6
CONTINUOUS
 62
    7
370
   -1
100
AcDbLine
 10
284.2498602687785
 20
55.96615080819399
 11
283.3609711576785
 21
55.96615080819399
  0
LINE
  5
264
100
AcDbEntity
  8
0
  6
CONTINUOUS
 62
    7
370
   -1
100
AcDbLine
 10
283.3609711576785
 20
55.96615080819399
 11
283.3609711576785
 21
55.521683919194
  0
LINE
  5
265
100
AcDbEntity
  8
0
  6
CONTINUOUS
 62
    7
370
   -1
100
AcDbLine
 10
282.9165269349785
 20
55.077239696994
 11
282.6943047121786
 21
55.077239696994
  0
LINE
  5
266
100
AcDbEntity
  8
0
  6
CONTINUOUS
 62
    7
370
   -1
100
AcDbLine
 10
282.2498600460785
 20
55.52170636369399
 11
282.2498600460785
 21
55.96615080819399
  0
LINE
  5
267
100
AcDbEntity
  8
0
  6
CONTINUOUS
 62
    7
370
   -1
100
AcDbLine
 10
112.4859232163785
 20
59.64936746239399
 11
112.9303676607785
 21
59.204923017894
  0
LINE
  5
268
100
AcDbEntity
  8
0
  6
CONTINUOUS
 62
    7
370
   -1
100
AcDbLine
 10
112.9303676607785
 20
59.204923017894
 11
110.9303674385785
 21
59.204923017894
  0
LINE
  5
269
100
AcDbEntity
  8
0
  6
CONTINUOUS
 62
    7
370
   -1
100
AcDbLine
 10
112.9303676607785
 20
58.538256351294
 11
112.9303676607785
 21
57.64938968459399
  0
LINE
  5
26A
100
AcDbEntity
  8
0
  6
CONTINUOUS
 62
    7
370
   -1
100
AcDbLine
 10
112.9303676607785
 20
57.64938968459399
 11
110.9303674385785
 21
58.204923017894
  0
LINE
  5
26B
100
AcDbEntity
  8
0
  6
CONTINUOUS
 62
    7
370
   -1
100
AcDbLine
 10
112.0414785496785
 20
58.093834128994
 11
112.0414785496785
 21
57.64938968459399
  0
LINE
  5
26C
100
AcDbEntity
  8
0
  6
CONTINUOUS
 62
    7
370
   -1
100
AcDbLine
 10
112.9303676607785
 20
56.093834128994
 11
112.9303676607785
 21
56.982745240194
  0
LINE
  5
26D
100
AcDbEntity
  8
0
  6
CONTINUOUS
 62
    7
370
   -1
100
AcDbLine
 10
112.9303676607785
 20
56.982745240194
 11
112.0414785496785
 21
56.982745240194
  0
LINE
  5
26E
100
AcDbEntity
  8
0
  6
CONTINUOUS
 62
    7
370
   -1
100
AcDbLine
 10
112.0414785496785
 20
56.982745240194
 11
112.0414785496785
 21
56.538278351194
  0
LINE
  5
26F
100
AcDbEntity
  8
0
  6
CONTINUOUS
 62
    7
370
   -1
100
AcDbLine
 10
111.5970343269785
 20
56.093834128994
 11
111.3748121040786
 21
56.093834128994
  0
LINE
  5
270
100
AcDbEntity
  8
0
  6
CONTINUOUS
 62
    7
370
   -1
100
AcDbLine
 10
110.9303674380785
 20
56.53830079569399
 11
110.9303674380785
 21
56.982745240194
  0
LINE
  5
271
100
AcDbEntity
  8
0
  6
CONTINUOUS
 62
    7
370
   -1
100
AcDbLine
 10
227.4055161417785
 20
48.874802300194
 11
227.4055161417785
 21
46.208135633494
  0
LINE
  5
272
100
AcDbEntity
  8
0
  6
CONTINUOUS
 62
    7
370
   -1
100
AcDbLine
 10
227.4055161417785
 20
46.208135633494
 11
226.5166272528785
 21
46.208135633494
  0
LINE
  5
273
100
AcDbEntity
  8
0
  6
CONTINUOUS
 62
    7
370
   -1
100
AcDbLine
 10
224.7388050306785
 20
47.541468522394
 11
222.9610716973785
 21
47.541468522394
  0
LINE
  5
274
100
AcDbEntity
  8
0
  6
CONTINUOUS
 62
    7
370
   -1
100
AcDbLine
 10
222.9610716973785
 20
47.541468522394
 11
222.9610716973785
 21
47.09702407799399
  0
LINE
  5
275
100
AcDbEntity
  8
0
  6
CONTINUOUS
 62
    7
370
   -1
100
AcDbLine
 10
224.7388050306785
 20
47.09702407799399
 11
224.7388050306785
 21
48.208135633494
  0
LINE
  5
276
100
AcDbEntity
  8
0
  6
CONTINUOUS
 62
    7
370
   -1
100
AcDbLine
 10
224.0721383640786
 20
48.87480230159399
 11
222.9610716973785
 21
48.87480230159399
  0
LINE
  5
277
100
AcDbEntity
  8
0
  6
CONTINUOUS
 62
    7
370
   -1
100
AcDbLine
 10
221.6277828084785
 20
48.874802300194
 11
220.5167161417785
 21
48.874802300194
  0
LINE
  5
278
100
AcDbEntity
  8
0
  6
CONTINUOUS
 62
    7
370
   -1
100
AcDbLine
 10
219.8500494750785
 20
48.208135633594
 11
219.8500494750785
 21
46.87480230029399
  0
LINE
  5
279
100
AcDbEntity
  8
0
  6
CONTINUOUS
 62
    7
370
   -1
100
AcDbLine
 10
220.5167161417785
 20
46.208135633594
 11
221.6277828084785
 21
46.208135633594
  0
LINE
  5
27A
100
AcDbEntity
  8
0
  6
CONTINUOUS
 62
    7
370
   -1
100
AcDbLine
 10
221.6277828084785
 20
46.208135633594
 11
221.6277828084785
 21
50.208135189194
  0
LINE
  5
27B
100
AcDbEntity
  8
0
  6
CONTINUOUS
 62
    7
370
   -1
100
AcDbLine
 10
218.5167605862786
 20
48.874802300194
 11
218.5167605862786
 21
46.208135633494
  0
LINE
  5
27C
100
AcDbEntity
  8
0
  6
CONTINUOUS
 62
    7
370
   -1
100
AcDbLine
 10
218.5167605862786
 20
46.208135633494
 11
217.6278716973785
 21
46.208135633494
  0
LINE
  5
27D
100
AcDbEntity
  8
0
  6
CONTINUOUS
 62
    7
370
   -1
100
AcDbLine
 10
215.6278716973785
 20
46.208135633494
 11
214.7390272528785
 21
46.208135633494
  0
LINE
  5
27E
100
AcDbEntity
  8
0
  6
CONTINUOUS
 62
    7
370
   -1
100
AcDbLine
 10
214.0723605861785
 20
46.874802300094
 11
214.0723605861785
 21
48.874802299694
  0
LINE
  5
27F
100
AcDbEntity
  8
0
  6
CONTINUOUS
 62
    7
370
   -1
100
AcDbLine
 10
214.0723605861785
 20
48.874802299694
 11
215.1834716972785
 21
48.874802299694
  0
LINE
  5
280
100
AcDbEntity
  8
0
  6
CONTINUOUS
 62
    7
370
   -1
100
AcDbLine
 10
215.1834716972785
 20
47.541468522394
 11
214.0723605861785
 21
47.541468522394
  0
LINE
  5
281
100
AcDbEntity
  8
0
  6
CONTINUOUS
 62
    7
370
   -1
100
AcDbLine
 10
212.7390716973786
 20
48.874802300194
 11
211.6280050306785
 21
48.874802300194
  0
LINE
  5
282
100
AcDbEntity
  8
0
  6
CONTINUOUS
 62
    7
370
   -1
100
AcDbLine
 10
210.9613383639785
 20
48.208135633494
 11
210.9613383639785
 21
46.874802300194
  0
LINE
  5
283
100
AcDbEntity
  8
0
  6
CONTINUOUS
 62
    7
370
   -1
100
AcDbLine
 10
211.6280050306785
 20
46.208135633494
 11
212.7390716973786
 21
46.208135633494
  0
LINE
  5
284
100
AcDbEntity
  8
0
  6
CONTINUOUS
 62
    7
370
   -1
100
AcDbLine
 10
212.7390716973786
 20
46.208135633494
 11
212.7390716973786
 21
50.20813518909399
  0
LINE
  5
285
100
AcDbEntity
  8
0
  6
CONTINUOUS
 62
    7
370
   -1
100
AcDbLine
 10
209.6280494751785
 20
48.874802300194
 11
208.5169828084785
 21
48.874802300194
  0
LINE
  5
286
100
AcDbEntity
  8
0
  6
CONTINUOUS
 62
    7
370
   -1
100
AcDbLine
 10
207.8503161417785
 20
48.208135633494
 11
207.8503161417785
 21
46.874802300194
  0
LINE
  5
287
100
AcDbEntity
  8
0
  6
CONTINUOUS
 62
    7
370
   -1
100
AcDbLine
 10
208.5169828084785
 20
46.208135633494
 11
209.6280494751785
 21
46.208135633494
  0
LINE
  5
288
100
AcDbEntity
  8
0
  6
CONTINUOUS
 62
    7
370
   -1
100
AcDbLine
 10
209.6280494751785
 20
46.208135633494
 11
209.6280494751785
 21
50.20813518909399
  0
LINE
  5
289
100
AcDbEntity
  8
0
  6
CONTINUOUS
 62
    7
370
   -1
100
AcDbLine
 10
206.5170272528785
 20
48.874802300194
 11
206.5170272528785
 21
46.208135633494
  0
LINE
  5
28A
100
AcDbEntity
  8
0
  6
CONTINUOUS
 62
    7
370
   -1
100
AcDbLine
 10
206.5170272528785
 20
46.208135633494
 11
205.6281383639786
 21
46.208135633494
  0
LINE
  5
28B
100
AcDbEntity
  8
0
  6
CONTINUOUS
 62
    7
370
   -1
100
AcDbLine
 10
203.8504494751785
 20
47.09702407799399
 11
203.8504494751785
 21
47.985912966894
  0
LINE
  5
28C
100
AcDbEntity
  8
0
  6
CONTINUOUS
 62
    7
370
   -1
100
AcDbLine
 10
202.0725828084785
 20
47.985912966894
 11
202.0725828084785
 21
47.09702407799399
  0
LINE
  5
28D
100
AcDbEntity
  8
0
  6
CONTINUOUS
 62
    7
370
   -1
100
AcDbLine
 10
200.7392045862786
 20
48.874801855794
 11
200.7392050306785
 21
48.652580077994
  0
LINE
  5
28E
100
AcDbEntity
  8
0
  6
CONTINUOUS
 62
    7
370
   -1
100
AcDbLine
 10
198.0725379195785
 20
46.208135633494
 11
198.7392045862786
 21
46.208135633494
  0
LINE
  5
28F
100
AcDbEntity
  8
0
  6
CONTINUOUS
 62
    7
370
   -1
100
AcDbLine
 10
199.4058712528786
 20
46.874802300194
 11
199.4058712528786
 21
48.208135633494
  0
LINE
  5
290
100
AcDbEntity
  8
0
  6
CONTINUOUS
 62
    7
370
   -1
100
AcDbLine
 10
198.7392045862786
 20
48.874802300194
 11
198.0725379195785
 21
48.874802300194
  0
LINE
  5
291
100
AcDbEntity
  8
0
  6
CONTINUOUS
 62
    7
370
   -1
100
AcDbLine
 10
196.7392934751786
 20
47.09702407799399
 11
196.7392934751786
 21
47.985912966894
  0
LINE
  5
292
100
AcDbEntity
  8
0
  6
CONTINUOUS
 62
    7
370
   -1
100
AcDbLine
 10
194.9614268084786
 20
47.985912966894
 11
194.9614268084786
 21
47.09702407799399
  0
LINE
  5
293
100
AcDbEntity
  8
0
  6
CONTINUOUS
 62
    7
370
   -1
100
AcDbLine
 10
193.6280485862785
 20
48.874801855794
 11
193.6280490306785
 21
46.208135633494
  0
LINE
  5
294
100
AcDbEntity
  8
0
  6
CONTINUOUS
 62
    7
370
   -1
100
AcDbLine
 10
193.6280490306785
 20
46.208135633494
 11
191.6280490306785
 21
46.208135633494
  0
LINE
  5
295
100
AcDbEntity
  8
0
  6
CONTINUOUS
 62
    7
370
   -1
100
AcDbLine
 10
190.9613823639785
 20
46.874802300194
 11
190.9613823639785
 21
48.87480229829399
  0
LINE
  5
296
100
AcDbEntity
  8
0
  6
CONTINUOUS
 62
    7
370
   -1
100
AcDbLine
 10
192.2947156973785
 20
46.208135633494
 11
192.2947156973785
 21
48.874802300494
  0
ENDSEC
  0
SECTION
  2
OBJECTS
  0
DICTIONARY
  5
C
330
0
100
AcDbDictionary
281
    1
  3
ACAD_GROUP
350
D
  0
DICTIONARY
  5
D
330
C
100
AcDbDictionary
281
    1
  0
ENDSEC
  0
EOF
